<?xml version="1.0" encoding="UTF-8"?>
<svg width="299px" height="228px" viewBox="0 0 299 228" version="1.1" xmlns="http://www.w3.org/2000/svg" xmlns:xlink="http://www.w3.org/1999/xlink">
    <title>icono-surfing</title>
    <g id="Page-1" stroke="none" stroke-width="1" fill="none" fill-rule="evenodd">
        <g id="Surfing-Euskadi" transform="translate(-751.000000, -5513.000000)" fill-rule="nonzero">
            <g id="icono-surfing" transform="translate(751.000000, 5513.000000)">
                <path d="M197.719193,52.2037738 C199.519193,49.0037738 199.919193,45.8037738 201.919193,43.2037738 C206.319193,37.6037738 212.319193,37.8037738 216.319193,43.7037738 C221.619193,51.6037738 219.719193,60.3037738 218.819193,68.9037738 C218.519193,71.5037738 218.119193,74.4037738 216.919193,76.6037738 C213.019193,84.0037738 214.319193,91.0037738 216.519193,98.5037738 C221.319193,115.203774 223.319193,132.403774 225.119193,149.603774 C225.219193,150.503774 225.419193,151.503774 225.519193,152.703774 C228.119193,151.903774 230.419193,151.003774 232.819193,150.403774 C243.419193,147.803774 253.019193,150.203774 261.619193,156.503774 C270.019193,162.603774 278.319193,163.203774 287.019193,157.103774 C290.819193,154.403774 294.519193,155.003774 296.619193,158.103774 C298.919193,161.403774 297.919193,165.003774 294.019193,167.903774 C282.619193,176.403774 267.519193,176.403774 255.819193,168.103774 C245.119193,160.403774 237.019193,160.403774 226.219193,168.103774 C214.819193,176.203774 199.419193,176.003774 187.919193,167.603774 C179.519193,161.403774 172.719193,161.203774 164.219193,167.103774 C149.719193,177.303774 133.419193,175.903774 123.219193,166.903774 C116.819193,161.303774 108.219193,161.803774 101.219193,166.903774 C88.519193,176.303774 73.719193,177.403774 60.719193,168.303774 C51.119193,161.503774 42.919193,162.303774 33.819193,168.703774 C24.519193,175.203774 13.519193,174.603774 4.419193,168.103774 C0.419193001,165.203774 -0.680806999,161.603774 1.419193,158.303774 C3.519193,154.903774 7.219193,154.303774 11.419193,157.103774 C17.319193,161.103774 22.619193,160.803774 28.519193,156.903774 C41.019193,148.503774 53.719193,147.203774 66.519193,156.703774 C70.519193,159.603774 71.019193,159.203774 71.319193,153.903774 C73.219193,125.203774 77.819193,97.1037738 89.519193,70.5037738 C94.719193,58.7037738 101.419193,47.9037738 110.719193,38.7037738 C135.219193,14.5037738 166.819193,15.7037738 189.519193,41.7037738 C192.119193,45.0037738 194.619193,48.4037738 197.719193,52.2037738 Z M156.419193,156.403774 C169.519193,147.903774 182.419193,147.503774 195.319193,157.003774 C198.619193,159.503774 202.819193,160.603774 207.019193,161.103774 C210.619193,161.603774 212.619193,160.803774 212.219193,156.403774 C211.419193,146.303774 210.419193,136.203774 208.719193,126.203774 C207.519193,118.603774 206.419193,111.003774 203.619193,102.803774 C192.219193,117.603774 178.819193,129.303774 166.619193,142.203774 C162.619193,146.403774 158.419193,150.503774 155.319193,155.403774 C155.019193,155.803774 154.119193,156.203774 154.819193,156.803774 C155.419193,157.303774 156.019193,157.003774 156.419193,156.403774 Z M142.019193,98.2037738 C142.019193,80.2037738 142.019193,62.3037738 142.019193,44.3037738 C142.019193,34.2037738 141.619193,34.0037738 132.419193,39.0037738 C118.719193,46.3037738 110.019193,58.2037738 103.419193,71.7037738 C90.919193,97.3037738 86.719193,124.803774 84.319193,152.803774 C84.119193,155.303774 82.819193,159.103774 85.119193,160.103774 C87.719193,161.303774 90.919193,158.803774 93.019193,156.803774 C102.719193,147.703774 118.219193,148.203774 129.519193,155.903774 C131.819193,157.503774 134.119193,159.103774 136.819193,160.203774 C140.719193,161.803774 142.119193,161.003774 142.119193,156.603774 C141.919193,137.203774 142.019193,117.703774 142.019193,98.2037738 Z M209.219193,48.7037738 C206.919193,54.1037738 205.219193,58.2037738 203.319193,62.3037738 C201.519193,66.4037738 199.019193,70.2037738 196.319193,73.8037738 C185.919193,87.5037738 171.919193,92.2037738 155.319193,87.3037738 C151.619193,86.2037738 151.219193,87.2037738 151.319193,90.5037738 C151.419193,107.103774 151.319193,123.703774 151.419193,140.403774 C151.419193,141.803774 150.719193,143.303774 152.119193,144.703774 C164.719193,131.603774 177.519193,118.803774 189.819193,105.403774 C199.619193,94.8037738 207.119193,82.7037738 209.719193,68.1037738 C210.719193,62.0037738 211.219193,55.9037738 209.219193,48.7037738 Z M151.119193,55.5037738 C151.119193,61.2037738 151.219193,66.8037738 151.119193,72.5037738 C151.119193,74.8037738 151.919193,76.1037738 153.919193,77.1037738 C165.019193,82.7037738 177.419193,80.8037738 186.119193,72.1037738 C189.619193,68.6037738 191.219193,65.5037738 187.319193,61.2037738 C185.119193,58.8037738 183.619193,55.7037738 181.519193,53.1037738 C175.019193,45.3037738 167.519193,38.9037738 157.519193,36.0037738 C151.619193,34.3037738 151.219193,34.6037738 151.119193,40.5037738 C151.019193,45.5037738 151.119193,50.5037738 151.119193,55.5037738 Z" id="Shape" fill="#0D2936"></path>
                <path d="M275.019193,200.103774 C267.619193,199.803774 261.219193,197.403774 255.319193,193.303774 C244.519193,185.903774 236.919193,186.003774 226.519193,193.503774 C215.119193,201.803774 199.319193,201.503774 187.319193,192.803774 C179.019193,186.803774 173.019193,186.603774 164.519193,192.403774 C155.919193,198.203774 146.819193,201.603774 136.319193,199.103774 C131.919193,198.003774 127.919193,196.103774 124.219193,193.403774 C116.919193,188.003774 108.419193,186.303774 99.719193,193.303774 C88.319193,202.503774 72.519193,202.403774 60.119193,193.503774 C51.119193,187.003774 43.119193,187.803774 34.519193,193.803774 C24.819193,200.503774 13.719193,200.203774 4.219193,193.403774 C0.319193001,190.603774 -0.880806999,186.803774 1.519193,183.603774 C4.219193,180.003774 7.719193,180.003774 11.219193,182.403774 C17.619193,186.903774 23.519193,186.103774 29.619193,181.703774 C40.419193,173.803774 54.019193,173.703774 65.119193,181.103774 C76.919193,189.003774 84.219193,188.703774 95.519193,180.503774 C105.719193,173.103774 117.119193,172.903774 126.819193,179.803774 C138.919193,188.303774 149.019193,187.903774 160.919193,179.603774 C171.019193,172.503774 182.419193,173.603774 192.819193,180.503774 C195.719193,182.403774 198.819193,184.103774 202.119193,185.203774 C208.419193,187.203774 214.119193,186.603774 219.619193,182.603774 C233.819193,172.203774 248.119193,172.103774 262.619193,182.303774 C270.819193,188.103774 278.819193,188.403774 287.119193,182.903774 C291.419193,180.003774 294.919193,180.403774 297.119193,183.803774 C299.319193,187.203774 298.319193,190.603774 294.219193,193.603774 C288.219193,197.703774 281.819193,199.803774 275.019193,200.103774 Z" id="Path" fill="#0D2936"></path>
                <path d="M293.819193,208.303774 C294.419193,208.703774 295.019193,209.003774 295.619193,209.403774 C299.119193,215.203774 298.619193,217.703774 293.119193,221.403774 C281.319193,229.303774 267.319193,229.203774 255.719193,221.003774 C244.819193,213.303774 236.919193,213.303774 226.119193,221.103774 C214.619193,229.403774 200.219193,229.103774 186.919193,219.903774 C179.219193,214.503774 172.019193,214.503774 164.419193,219.903774 C151.019193,229.403774 134.819193,229.603774 122.819193,219.803774 C117.119193,215.103774 109.219193,213.203774 100.719193,219.803774 C88.119193,229.603774 72.919193,230.003774 59.419193,220.503774 C50.619193,214.303774 42.919193,215.203774 34.619193,220.803774 C24.519193,227.703774 14.019193,227.603774 4.319193,220.903774 C0.0191930015,217.903774 -1.180807,214.203774 1.219193,210.803774 C3.519193,207.503774 7.019193,207.103774 11.319193,210.003774 C17.219193,214.003774 22.619193,213.603774 28.319193,209.503774 C40.719193,200.703774 53.319193,200.803774 65.819193,209.303774 C75.519193,215.903774 84.419193,215.703774 93.919193,208.603774 C104.619193,200.603774 117.719193,200.603774 129.719193,208.703774 C140.519193,215.903774 146.519193,215.903774 157.519193,208.403774 C169.119193,200.603774 181.219193,200.503774 193.019193,208.103774 C204.419193,215.603774 210.619193,215.503774 221.619193,207.903774 C225.119193,205.503774 228.919193,203.903774 233.019193,202.903774 C243.019193,200.403774 252.419193,202.503774 260.519193,208.403774 C269.519193,214.903774 278.319193,216.203774 287.519193,209.203774 C289.519193,208.103774 291.619193,208.003774 293.819193,208.303774 Z" id="Path" fill="#0D2936"></path>
                <path d="M275.119193,105.203774 C277.719193,105.103774 279.619193,105.403774 280.119193,108.003774 C280.619193,111.103774 278.519193,112.103774 276.019193,112.603774 C262.819193,115.403774 249.719193,118.203774 236.519193,121.003774 C235.519193,121.203774 234.519193,121.303774 233.619193,121.603774 C230.819193,122.403774 228.419193,122.003774 227.619193,118.903774 C226.919193,115.903774 229.219193,114.803774 231.619193,114.303774 C245.719193,111.203774 259.919193,108.303774 274.019193,105.203774 C274.519193,105.303774 275.019193,105.203774 275.119193,105.203774 Z" id="Path" fill="#0D2C39"></path>
                <path d="M71.819193,100.103774 C71.919193,102.803774 69.219193,104.303774 65.619193,102.903774 C59.319193,100.303774 53.119193,97.4037738 46.919193,94.6037738 C39.919193,91.5037738 32.919193,88.3037738 25.919193,85.3037738 C23.219193,84.1037738 21.019193,82.5037738 22.619193,79.3037738 C24.119193,76.3037738 26.719193,77.4037738 29.119193,78.5037738 C41.919193,84.2037738 54.619193,89.8037738 67.419193,95.5037738 C69.319193,96.4037738 71.519193,97.1037738 71.819193,100.103774 Z" id="Path" fill="#0D2B38"></path>
                <path d="M229.419193,103.603774 C227.619193,103.603774 226.519193,102.803774 225.919193,101.103774 C225.319193,99.4037738 225.719193,98.2037738 227.219193,97.3037738 C228.619193,96.5037738 230.019193,95.6037738 231.519193,94.9037738 C242.119193,90.0037738 252.719193,85.2037738 263.219193,80.4037738 C264.319193,79.9037738 265.419193,79.6037738 266.519193,79.2037738 C268.719193,78.3037738 270.319193,78.7037738 271.419193,81.0037738 C272.419193,83.2037738 271.519193,84.8037738 269.819193,85.6037738 C256.819193,91.6037738 243.819193,97.5037738 230.819193,103.303774 C230.319193,103.503774 229.719193,103.503774 229.419193,103.603774 Z" id="Path" fill="#0E2C39"></path>
                <path d="M58.219193,33.1037738 C60.119193,33.0037738 61.319193,34.2037738 62.319193,35.5037738 C67.919193,42.1037738 73.419193,48.7037738 79.019193,55.2037738 C80.819193,57.3037738 82.019193,59.6037738 79.419193,61.6037738 C77.119193,63.4037738 75.019193,62.1037738 73.419193,60.1037738 C67.619193,53.3037738 61.819193,46.4037738 56.019193,39.6037738 C54.919193,38.3037738 54.219193,36.9037738 55.019193,35.1037738 C55.719193,33.8037738 56.719193,33.2037738 58.219193,33.1037738 Z" id="Path" fill="#0D2B38"></path>
                <path d="M94.019193,36.2037738 C94.019193,38.7037738 93.319193,39.9037738 91.919193,40.7037738 C90.119193,41.6037738 88.419193,41.0037738 87.519193,39.5037738 C84.019193,33.6037738 80.719193,27.7037738 77.519193,21.7037738 C76.619193,20.1037738 77.319193,18.4037738 78.919193,17.4037738 C80.319193,16.5037738 82.119193,16.4037738 83.019193,17.7037738 C87.619193,23.6037738 90.519193,30.5037738 94.019193,36.2037738 Z" id="Path" fill="#0E2C39"></path>
                <path d="M201.119193,38.3037738 C199.019193,37.6037738 197.419193,35.8037738 199.019193,33.0037738 C202.119193,27.5037738 205.419193,22.2037738 208.819193,16.9037738 C210.019193,15.0037738 211.919193,14.3037738 214.019193,15.5037738 C216.019193,16.7037738 216.419193,18.7037738 215.219193,20.7037738 C212.119193,25.9037738 208.819193,31.1037738 205.619193,36.3037738 C204.719193,37.6037738 203.619193,38.5037738 201.119193,38.3037738 Z" id="Path" fill="#0D2B38"></path>
                <path d="M114.119193,23.0037738 C114.219193,25.6037738 113.319193,27.1037738 111.319193,27.6037738 C109.219193,28.1037738 107.719193,27.2037738 107.019193,25.2037738 C105.419193,20.2037738 103.919193,15.1037738 102.619193,10.0037738 C102.119193,8.00377377 103.219193,6.40377377 105.119193,5.70377377 C107.219193,5.00377377 108.919193,6.00377377 109.519193,7.80377377 C111.319193,13.1037738 112.719193,18.3037738 114.119193,23.0037738 Z" id="Path" fill="#0E2C39"></path>
                <path d="M179.419193,21.6037738 C181.119193,17.5037738 183.119193,12.5037738 185.419193,7.50377377 C186.219193,5.80377377 188.119193,5.70377377 189.819193,6.40377377 C191.519193,7.10377377 192.519193,8.70377377 191.819193,10.4037738 C190.019193,15.4037738 188.019193,20.3037738 185.919193,25.1037738 C185.219193,26.7037738 183.619193,27.5037738 181.719193,26.9037738 C179.719193,26.3037738 179.019193,24.8037738 179.419193,21.6037738 Z" id="Path" fill="#0D2C39"></path>
                <path d="M75.819193,81.1037738 C74.919193,84.3037738 72.819193,85.7037738 70.219193,84.0037738 C65.919193,81.3037738 61.919193,78.0037738 57.919193,74.8037738 C56.519193,73.7037738 56.119193,71.9037738 57.319193,70.3037738 C58.319193,68.9037738 59.919193,67.8037738 61.619193,68.8037738 C66.419193,71.7037738 70.919193,75.0037738 75.019193,78.9037738 C75.519193,79.5037738 75.619193,80.4037738 75.819193,81.1037738 Z" id="Path" fill="#0E2D3A"></path>
                <path d="M55.019193,65.6037738 C55.019193,68.7037738 51.719193,70.4037738 49.119193,68.7037738 C45.119193,66.1037738 41.319193,63.0037738 37.519193,60.0037738 C35.819193,58.7037738 35.619193,56.8037738 36.719193,55.1037738 C37.719193,53.6037738 39.419193,52.8037738 41.019193,53.8037738 C45.719193,56.7037738 50.119193,60.0037738 54.119193,63.8037738 C54.619193,64.3037738 54.819193,65.2037738 55.019193,65.6037738 Z" id="Path" fill="#0D2B38"></path>
                <path d="M18.519193,103.803774 C22.519193,104.803774 26.519193,105.903774 30.419193,106.903774 C32.719193,107.503774 33.819193,109.003774 33.219193,111.303774 C32.519193,113.903774 30.519193,114.403774 28.119193,113.903774 C24.419193,113.003774 20.719193,112.103774 17.019193,111.303774 C14.619193,110.803774 12.819193,109.403774 13.319193,106.903774 C14.019193,104.703774 16.019193,103.503774 18.519193,103.803774 Z" id="Path" fill="#0D2C39"></path>
                <path d="M43.519193,110.303774 C46.719193,111.103774 51.019193,112.103774 55.319193,113.203774 C57.619193,113.803774 57.719193,115.803774 57.519193,117.603774 C57.319193,119.503774 55.719193,120.503774 53.919193,120.203774 C49.219193,119.303774 44.619193,118.303774 39.919193,117.003774 C38.119193,116.503774 37.319193,114.903774 37.719193,113.103774 C38.319193,110.803774 40.019193,109.903774 43.519193,110.303774 Z" id="Path" fill="#0E2C39"></path>
                <path d="M137.719193,11.3037738 C138.319193,15.2037738 137.019193,17.5037738 134.419193,17.9037738 C131.219193,18.4037738 130.419193,15.6037738 130.219193,12.9037738 C130.019193,10.2037738 129.919193,7.60377377 129.719193,4.90377377 C129.619193,2.30377377 130.219193,0.103773773 133.319193,0.00377377341 C136.019193,-0.0962262266 137.019193,1.80377377 137.119193,4.20377377 C137.419193,7.00377377 137.619193,9.70377377 137.719193,11.3037738 Z" id="Path" fill="#0E2C39"></path>
                <path d="M156.219193,12.9037738 C156.619193,10.1037738 156.919193,7.00377377 157.419193,3.90377377 C157.819193,1.50377377 159.319193,0.00377377341 161.919193,0.403773773 C164.419193,0.803773773 165.119193,2.60377377 164.819193,4.80377377 C164.519193,7.90377377 164.019193,11.0037738 163.519193,14.2037738 C163.119193,16.6037738 162.519193,18.8037738 159.319193,18.4037738 C156.019193,18.0037738 156.119193,15.6037738 156.219193,12.9037738 Z" id="Path" fill="#0D2B38"></path>
                <path d="M232.719193,69.1037738 C234.119193,69.1037738 235.319193,69.5037738 236.119193,70.8037738 C236.919193,72.3037738 236.819193,73.8037738 235.719193,74.9037738 C233.119193,77.6037738 229.919193,79.7037738 226.619193,81.7037738 C225.119193,82.6037738 223.719193,81.9037738 222.619193,80.8037738 C221.619193,79.8037738 221.319193,78.6037738 221.819193,77.2037738 C222.519193,75.3037738 230.819193,69.2037738 232.719193,69.1037738 Z" id="Path" fill="#0E2E3B"></path>
                <path d="M275.119193,138.903774 C272.019193,138.403774 267.119193,140.203774 267.119193,135.003774 C267.119193,129.703774 272.019193,131.403774 275.219193,131.303774 C278.219193,131.303774 282.919193,129.803774 283.119193,134.703774 C283.219193,139.903774 278.419193,138.503774 275.119193,138.903774 Z" id="Path" fill="#0E2E3B"></path>
                <path d="M258.119193,58.2037738 C258.219193,59.3037738 257.619193,60.2037738 256.919193,60.8037738 C254.319193,62.8037738 251.719193,65.0037738 248.919193,66.7037738 C247.119193,67.8037738 244.919193,67.7037738 243.619193,65.6037738 C242.519193,63.8037738 243.019193,62.0037738 244.619193,60.7037738 C247.119193,58.8037738 249.619193,56.8037738 252.319193,55.1037738 C254.919193,53.7037738 258.019193,55.4037738 258.119193,58.2037738 Z" id="Path" fill="#0E2D3A"></path>
                <path d="M239.519193,37.6037738 C239.519193,39.8037738 232.519193,47.0037738 230.319193,47.3037738 C228.919193,47.4037738 227.719193,47.0037738 226.919193,45.8037738 C226.119193,44.6037738 225.819193,43.2037738 226.819193,42.1037738 C229.119193,39.5037738 231.319193,36.8037738 234.019193,34.6037738 C236.319193,32.7037738 239.619193,34.7037738 239.519193,37.6037738 Z" id="Path" fill="#0E2D3A"></path>
                <path d="M18.219193,138.203774 C17.219193,138.203774 16.219193,138.203774 15.219193,138.203774 C12.919193,138.303774 10.619193,138.303774 10.419193,135.303774 C10.219193,132.303774 12.219193,131.303774 14.919193,131.203774 C17.419193,131.203774 19.919193,131.203774 22.419193,131.203774 C24.919193,131.203774 26.819193,132.303774 26.719193,135.003774 C26.619193,137.603774 24.819193,138.603774 22.219193,138.303774 C20.819193,138.103774 19.519193,138.203774 18.219193,138.203774 C18.219193,138.203774 18.219193,138.203774 18.219193,138.203774 Z" id="Path" fill="#0D2A37"></path>
                <path d="M237.219193,138.203774 C235.919193,138.203774 234.519193,138.103774 233.219193,138.203774 C230.819193,138.403774 229.219193,137.403774 229.319193,134.903774 C229.319193,132.503774 230.919193,131.303774 233.219193,131.203774 C236.019193,131.103774 238.919193,131.103774 241.719193,131.203774 C244.219193,131.303774 245.919193,132.703774 245.619193,135.303774 C245.319193,137.603774 243.619193,138.503774 241.219193,138.203774 C239.919193,138.103774 238.519193,138.203774 237.219193,138.203774 C237.219193,138.203774 237.219193,138.203774 237.219193,138.203774 Z" id="Path" fill="#0D2A37"></path>
                <path d="M37.019193,138.203774 C36.219193,138.203774 35.319193,138.203774 34.519193,138.203774 C32.219193,138.303774 29.519193,138.603774 29.319193,135.203774 C29.119193,131.803774 31.519193,131.203774 34.319193,131.203774 C36.619193,131.203774 38.919193,131.203774 41.219193,131.203774 C43.619193,131.303774 45.519193,132.303774 45.419193,135.003774 C45.319193,137.803774 43.419193,138.503774 40.919193,138.203774 C39.619193,138.103774 38.319193,138.203774 37.019193,138.203774 Z" id="Path" fill="#0D2936"></path>
                <path d="M56.019193,138.203774 C54.819193,138.203774 53.719193,138.103774 52.519193,138.203774 C50.319193,138.403774 48.419193,137.803774 48.219193,135.303774 C47.919193,132.603774 49.619193,131.303774 52.119193,131.203774 C54.919193,131.103774 57.719193,131.103774 60.519193,131.203774 C63.019193,131.303774 64.619193,132.703774 64.319193,135.303774 C64.019193,137.903774 62.219193,138.303774 60.019193,138.103774 C58.619193,138.103774 57.319193,138.203774 56.019193,138.203774 Z" id="Path" fill="#0D2936"></path>
                <path d="M255.819193,138.203774 C255.019193,138.203774 254.119193,138.203774 253.319193,138.203774 C251.019193,138.303774 248.319193,138.603774 248.119193,135.203774 C247.919193,131.803774 250.319193,131.203774 253.119193,131.203774 C255.419193,131.203774 257.719193,131.203774 260.019193,131.203774 C262.419193,131.303774 264.319193,132.303774 264.219193,135.003774 C264.119193,137.803774 262.219193,138.403774 259.719193,138.203774 C258.519193,138.103774 257.219193,138.203774 255.819193,138.203774 Z" id="Path" fill="#0D2936"></path>
                <path d="M209.219193,48.7037738 C211.219193,55.9037738 210.719193,61.9037738 209.719193,67.9037738 C207.119193,82.5037738 199.619193,94.6037738 189.819193,105.203774 C177.519193,118.503774 164.719193,131.403774 152.119193,144.503774 C150.819193,143.203774 151.519193,141.603774 151.419193,140.203774 C151.419193,123.603774 151.419193,107.003774 151.319193,90.3037738 C151.319193,87.1037738 151.719193,86.0037738 155.319193,87.1037738 C171.819193,92.1037738 185.819193,87.4037738 196.319193,73.6037738 C199.019193,70.0037738 201.419193,66.2037738 203.319193,62.1037738 C205.219193,58.3037738 206.919193,54.1037738 209.219193,48.7037738 Z" id="Path" fill="#8AC9CD"></path>
                <path d="M156.419193,156.403774 C156.019193,157.003774 155.419193,157.303774 154.919193,156.903774 C154.219193,156.303774 155.119193,155.903774 155.419193,155.503774 C155.719193,155.803774 156.019193,156.103774 156.419193,156.403774 Z" id="Path" fill="#3EA9B1"></path>
            </g>
        </g>
    </g>
</svg>