<?xml version="1.0" encoding="UTF-8"?>
<svg width="250px" height="32px" viewBox="0 0 250 32" version="1.1" xmlns="http://www.w3.org/2000/svg" xmlns:xlink="http://www.w3.org/1999/xlink">
    <title>Group</title>
    <g id="Page-1" stroke="none" stroke-width="1" fill="none" fill-rule="evenodd">
        <g id="Surfing-Euskadi" transform="translate(-315.000000, -1903.000000)" fill-rule="nonzero">
            <g id="Group" transform="translate(315.000000, 1903.000000)">
                <path d="M199.422411,31 C195.190461,31 192.055684,29.9369529 189.077645,28.1905183 C187.666995,27.355267 186.256345,26.2922199 184.767326,25.6088325 C179.908421,23.3308744 175.206255,23.786466 170.974305,26.9756073 C164.312903,31.9111832 157.416392,31.7593194 150.206404,28.3423822 C149.187601,27.8867906 148.168798,27.431199 147.306734,26.7478115 C142.761307,23.1790105 137.824032,24.0142618 133.435344,27.0515393 C128.576439,30.4684764 123.090578,31.7593194 117.134501,30.3925445 C114.705048,29.785089 112.510704,28.6461099 110.473098,27.2034031 C108.984079,26.140356 107.338321,25.3810367 105.614193,24.8495131 C102.636154,23.9383298 99.893224,24.3179895 97.5421409,26.2922199 C90.2537831,32.214911 80.4576032,32.6705026 72.2288121,26.8996754 C67.8401236,23.8623979 63.6865433,24.0901937 59.2978548,26.5959476 C57.8088354,27.431199 56.5549244,28.4183141 54.9091662,29.1017016 C49.4233055,31.3037277 44.4076614,30.3166126 39.7838645,26.9756073 C37.8246286,25.6088325 37.5111508,23.710534 38.6866924,22.0400314 C39.862234,20.3695288 41.8998394,19.9898691 43.8590753,21.356644 C47.6991778,23.9383298 51.1474331,23.6346021 54.9875356,21.0529162 C61.9624157,16.3451361 70.2695762,16.6488639 76.5391313,21.280712 C81.7898837,25.1532408 87.5108527,24.8495131 92.8399745,21.0529162 C99.1095296,16.5729319 105.614193,16.2692042 112.353965,20.141733 C113.451137,20.7491885 114.46994,21.4325759 115.488742,22.0400314 C119.642323,24.6976492 123.874272,24.4698534 128.027853,22.1159634 C129.83035,21.1288482 131.554477,19.9139372 133.435344,19.0027539 C139.626529,16.1932723 145.425868,16.9525916 150.990098,20.5973246 C154.90857,23.1790105 159.06215,24.6976492 163.842686,22.8752827 C164.939858,22.495623 165.723553,21.7363037 166.663986,21.1288482 C174.814407,15.6617487 183.043198,15.5858168 191.19362,21.1288482 C196.444373,24.6976492 200.519583,24.7735812 206.005444,21.356644 C208.199788,19.9898691 210.159024,20.2176649 211.334566,21.8122356 C212.510107,23.4827382 212.11826,25.3810367 210.237394,26.9756073 C207.416094,29.4813613 202.870666,31 199.422411,31 Z" id="Path" fill="#C2E3E7"></path>
                <path d="M248.36801,0.0102362239 C249.149782,0.0102362239 250.061848,-0.181977314 249.9967,1.09944627 C249.931553,2.18865633 249.605815,2.82936812 248.36801,2.76529694 C248.10742,2.76529694 247.846829,2.76529694 247.586239,2.76529694 C243.351645,2.76529694 241.722955,3.72636463 240.550298,7.69877776 C238.726165,13.7855398 239.051903,19.6160171 243.351645,24.8057827 C244.719745,26.4716333 246.47873,27.6249146 248.172567,28.7781958 C248.824044,29.2266941 249.73611,29.6751923 249.47552,30.63626 C249.214929,31.6613989 248.237715,31.9176836 247.260501,31.9817548 C243.025907,32.1739683 239.247346,30.8284735 235.664228,28.842267 C230.647862,26.0231351 227.195039,21.7303661 224.784578,16.6687429 C222.765002,12.1196891 221.527198,7.31435068 221.071164,2.31679868 C220.875722,0.0743074034 220.940869,0.0102362239 223.155888,0.0102362239 L248.36801,0.0102362239 Z" id="Path" fill="#025366" transform="translate(235.500000, 16.000000) rotate(-180.000000) translate(-235.500000, -16.000000) "></path>
                <path d="M27.3680103,0.0102362239 C28.1497815,0.0102362239 29.061848,-0.181977314 28.9967004,1.09944627 C28.9315528,2.18865633 28.6058148,2.82936812 27.3680103,2.76529694 C27.1074199,2.76529694 26.8468295,2.76529694 26.5862391,2.76529694 C22.3516448,2.76529694 20.7229547,3.72636463 19.5502979,7.69877776 C17.726165,13.7855398 18.051903,19.6160171 22.3516448,24.8057827 C23.7197445,26.4716333 25.4787298,27.6249146 27.1725675,28.7781958 C27.8240435,29.2266941 28.73611,29.6751923 28.4755196,30.63626 C28.2149291,31.6613989 27.2377151,31.9176836 26.260501,31.9817548 C22.0259068,32.1739683 18.2473458,30.8284735 14.6642276,28.842267 C9.64786212,26.0231351 6.19503913,21.7303661 3.7845778,16.6687429 C1.76500209,12.1196891 0.527197621,7.31435068 0.0711643963,2.31679868 C-0.124278414,0.0743074034 -0.0591308109,0.0102362239 2.15588771,0.0102362239 L27.3680103,0.0102362239 Z" id="Path" fill="#025366" transform="translate(14.500000, 16.000000) scale(-1, 1) rotate(180.000000) translate(-14.500000, -16.000000) "></path>
                <path d="M198.643992,15.9963815 C195.121012,15.9963815 191.832897,14.9191746 188.857937,13.1494776 C187.292168,12.2261574 185.804687,11.0720072 184.16063,10.3795171 C179.228458,8.14815998 174.60944,8.91759346 170.460153,12.2261574 C167.876634,14.2266845 164.901673,15.3038913 161.691847,15.6886081 C156.368233,16.3041548 151.51435,14.7652879 147.365062,11.7644973 C142.198025,8.07121663 137.265853,9.22536685 133.351431,12.1492141 C129.90674,14.6883445 125.992318,15.9194381 121.686453,15.9963815 C117.928608,16.0733248 114.640493,14.9191746 111.587244,12.9186475 C109.551745,11.6106106 107.594534,10.3025737 105.167592,9.68702693 C102.349208,8.9945368 99.7656895,9.37925354 97.5736131,11.2258939 C90.292788,17.3044184 80.5850212,17.5352484 72.3647348,12.0722707 C67.0411207,8.53287672 63.1266986,8.76370676 57.8030845,12.4569875 C52.2446051,16.3810982 44.8854916,16.1502681 39.640166,11.918384 C38.4658393,10.9950638 37.7612434,9.84091363 38.0743971,8.22510332 C38.3875509,6.76317972 39.3270122,5.91680289 40.8144926,5.53208615 C41.9888192,5.22431276 43.006569,5.6090295 43.9460303,6.30151963 C47.6255871,8.84065011 50.9919901,8.68676341 54.7498353,6.07068959 C61.4826413,1.45408872 69.6246393,1.14631533 76.4357337,6.14763293 C81.8376362,10.148687 87.3178272,9.84091363 92.8763066,5.91680289 C99.1393819,1.37714537 106.107053,0.838541936 112.526706,5.30125611 C119.024646,9.84091363 124.739702,9.68702693 131.159355,5.30125611 C137.657295,0.838541936 144.703255,1.37714537 151.201196,5.7629162 C154.567599,8.07121663 158.247156,9.45619689 162.396443,8.37899002 C163.727347,8.07121663 164.901673,7.45566985 166.076,6.60929302 C174.296286,0.607711892 182.829726,0.453825197 191.20659,6.22457628 C196.530204,9.84091363 200.522914,9.91785698 206.003105,6.37846298 C208.038605,5.07042606 209.917527,5.22431276 211.248431,6.84012306 C212.501046,8.45593337 212.187892,10.5334038 210.30897,12.0722707 C207.334009,14.3805711 202.714991,15.9963815 198.643992,15.9963815 Z" id="Path" fill="#7CB8D3"></path>
            </g>
        </g>
    </g>
</svg>