<?xml version="1.0" encoding="UTF-8"?>
<svg width="350px" height="56px" viewBox="0 0 350 56" version="1.1" xmlns="http://www.w3.org/2000/svg" xmlns:xlink="http://www.w3.org/1999/xlink">
    <title>olas-tabla</title>
    <g id="Page-1" stroke="none" stroke-width="1" fill="none" fill-rule="evenodd">
        <g id="Surfing-Euskadi" transform="translate(-723.000000, -682.000000)" fill-rule="nonzero">
            <g id="olas-tabla" transform="translate(723.000000, 682.000000)">
                <path d="M270.672247,36.9172023 C265.326304,36.9172023 261.366347,35.5312171 257.604387,33.2542415 C255.822406,32.1652531 254.040425,30.7792679 252.159445,29.8882775 C246.021511,26.9183093 240.081574,27.5123029 234.735632,31.6702584 C226.320722,38.1051896 217.608815,37.9071917 208.500912,33.4522393 C207.213926,32.8582457 205.92694,32.264252 204.837952,31.3732616 C199.096013,26.7203114 192.85908,27.8092997 187.315139,31.7692573 C181.177205,36.2242097 174.247279,37.9071917 166.723359,36.1252107 C163.654392,35.3332192 160.882422,33.8482351 158.308449,31.9672552 C156.427469,30.5812701 154.348492,29.5912807 152.170515,28.8982881 C148.408555,27.7103008 144.943592,28.2052955 141.973624,30.7792679 C132.766723,38.5011853 120.391855,39.095179 109.996966,31.5712595 C104.453026,27.6113018 99.2060818,27.9082987 93.6621411,31.1752637 C91.7811612,32.264252 90.1971782,33.5512383 88.1182004,34.4422287 C81.1882746,37.313198 74.8523424,36.0262118 69.0114049,31.6702584 C66.5364313,29.8882775 66.1404356,27.413304 67.6254197,25.2353273 C69.1104038,23.0573506 71.6843763,22.5623559 74.1593498,24.3443368 C79.0102979,27.7103008 83.3662513,27.314305 88.2171993,23.948341 C97.0281051,17.8104067 107.521993,18.2064025 115.441908,24.2453379 C122.074837,29.2942838 129.30176,28.8982881 136.033688,23.948341 C143.953603,18.1074035 152.170515,17.7114078 160.684424,22.7603537 C162.070409,23.5523453 163.357395,24.4433357 164.644382,25.2353273 C169.891325,28.7002902 175.237268,28.4032934 180.484212,25.3343262 C182.761188,24.04734 184.939164,22.4633569 187.315139,21.2753696 C195.136055,17.6124088 202.461977,18.6023982 209.490902,23.3543474 C214.440849,26.7203114 219.687793,28.7002902 225.726728,26.3243156 C227.112713,25.8293209 228.102703,24.8393315 229.29069,24.04734 C239.58658,16.9194162 249.981468,16.8204173 260.277358,24.04734 C266.910287,28.7002902 272.058232,28.7992891 278.988158,24.3443368 C281.760128,22.5623559 284.235102,22.8593527 285.720086,24.9383304 C287.20507,27.1163071 286.710075,29.5912807 284.334101,31.6702584 C280.770139,34.9372234 275.0282,36.9172023 270.672247,36.9172023 Z" id="Path" fill="#77AFC6"></path>
                <path d="M269.880256,18.0084046 C265.425303,18.0084046 261.267348,16.6224194 257.505388,14.3454438 C255.525409,13.1574565 253.644429,11.6724724 251.565452,10.7814819 C245.328518,7.91051264 239.487581,8.90050204 234.240637,13.1574565 C230.973672,15.731429 227.211712,17.1174141 223.152756,17.6124088 C216.420828,18.4044004 210.282893,16.4244215 205.035949,12.5634628 C198.502019,7.81151369 192.265086,9.29649781 187.315139,13.0584576 C182.959186,16.3254226 178.009239,17.9094056 172.564297,18.0084046 C167.812348,18.1074035 163.654392,16.6224194 159.793433,14.048447 C157.219461,12.365465 154.744488,10.682483 151.67552,9.89049145 C148.111558,8.99950098 144.844593,9.49449569 142.072623,11.8704703 C132.865722,19.6913866 120.589853,19.9883834 110.194964,12.9594586 C103.463036,8.40550734 98.5130892,8.70250416 91.7811612,13.4544533 C84.7522364,18.5033993 75.446336,18.2064025 68.813407,12.7614607 C67.3284229,11.5734734 66.4374324,10.0884893 66.8334282,8.00951158 C67.2294239,6.1285317 68.4174112,5.03954336 70.2983911,4.54454865 C71.7833752,4.14855289 73.0703614,4.64354759 74.2583487,5.53453806 C78.9112989,8.8015031 83.1682534,8.60350522 87.9202025,5.23754124 C96.4341114,-0.702395206 106.730001,-1.09839097 115.342909,5.33654018 C122.173836,10.4844851 129.103762,10.0884893 136.132687,5.03954336 C144.052602,-0.801394147 152.863508,-1.49438673 160.981421,4.24755183 C169.198333,10.0884893 176.425256,9.89049145 184.543169,4.24755183 C192.760081,-1.49438673 201.669985,-0.801394147 209.886897,4.84154547 C214.143852,7.81151369 218.796802,9.59349463 224.043746,8.20750946 C225.726728,7.81151369 227.211712,7.01952217 228.696696,5.93053382 C239.091585,-1.79138355 249.88247,-1.98938144 260.475356,5.43553912 C267.207284,10.0884893 272.25623,10.1874883 279.186156,5.633537 C281.760128,3.95055501 284.136103,4.14855289 285.819085,6.22753064 C287.403068,8.3065084 287.007072,10.9794798 284.631098,12.9594586 C280.869138,15.9294268 275.0282,18.0084046 269.880256,18.0084046 Z" id="Path" fill="#77AFC6"></path>
                <path d="M270.177252,55.9249989 C265.425303,55.8259999 260.970351,54.5390137 257.010393,51.8660423 C254.238423,49.9850624 251.565452,48.2030815 248.199488,47.41109 C243.150542,46.3221016 238.695589,47.5100889 234.735632,50.5790561 C226.320722,57.0139872 217.608815,56.7169904 208.500912,52.460036 C207.213926,51.8660423 206.025939,51.1730497 204.837952,50.3810582 C198.502019,46.2231027 193.948068,46.2231027 187.810134,50.5790561 C184.741167,52.7570328 181.474201,54.3410158 177.811241,55.2320063 C170.980314,56.8159893 164.743381,55.4300042 159.001442,51.3710476 C156.031474,49.2920699 152.863508,47.5100889 149.101548,47.41109 C146.527575,47.312091 144.151601,48.0050836 142.171622,49.6880656 C133.162718,57.409983 120.787851,58.0039766 110.095965,50.777054 C103.661034,46.4211006 98.6120881,46.6190985 92.078158,51.1730497 C85.0492332,56.1229968 76.9313201,56.2219957 70.0013943,51.3710476 C66.9324271,49.1930709 66.0414366,46.7180974 67.6254197,44.3421228 C69.2094027,41.8671493 71.7833752,41.6691514 74.9513413,43.7481292 C77.5253138,45.4311112 80.2972841,46.2231027 83.3662513,45.4311112 C84.8512354,45.0351154 86.0392227,44.2431239 87.3262089,43.4511323 C95.0481263,38.3031874 103.166039,36.5212065 111.778947,40.8771599 C113.560928,41.7681504 115.045912,43.0551366 116.728894,44.045126 C123.064826,47.7080868 129.499758,47.9060847 135.241696,43.2531345 C143.359609,36.6202054 153.259503,36.8182033 162.070409,42.5601419 C162.763402,43.0551366 163.456394,43.4511323 164.149387,43.9461271 C169.792326,47.8070857 175.435266,47.6090879 181.078206,44.045126 C185.434159,41.1741567 189.889111,38.5011853 195.334053,38.3031874 C200.580997,38.1051896 205.233947,39.4911747 209.490902,42.4611429 C215.133841,46.5200995 223.251754,48.7970751 229.983682,42.8571387 C231.17167,41.7681504 232.755653,40.9761588 234.240637,40.2831662 C243.150542,36.2242097 251.565452,37.313198 259.584366,42.5601419 C261.168349,43.5501313 262.752332,44.6391196 264.435314,45.4311112 C269.286262,47.6090879 273.741214,46.9160953 278.097168,44.1441249 C281.859127,41.6691514 284.334101,41.6691514 286.017083,44.2431239 C287.601066,46.7180974 286.611077,49.3910688 283.146114,51.7670434 C279.087157,54.4400148 274.830203,55.6280021 270.177252,55.9249989 Z" id="Path" fill="#77AFC6"></path>
                <path d="M41.5886983,5.23754124 C42.7766856,5.23754124 44.1626707,4.94054441 44.0636718,6.92052323 C43.9646729,8.60350522 43.4696781,9.59349463 41.5886983,9.49449569 C41.1927025,9.49449569 40.7967067,9.49449569 40.400711,9.49449569 C33.9657798,9.49449569 31.4908063,10.9794798 29.7088254,17.1174141 C26.9368551,26.5223135 27.4318498,35.5312171 33.9657798,43.5501313 C36.0447576,46.1241037 38.717729,47.9060847 41.2917015,49.6880656 C42.2816909,50.3810582 43.667676,51.0740508 43.2716803,52.5590349 C42.8756845,54.1430179 41.3907004,54.5390137 39.9057163,54.6380126 C33.4707851,54.9350095 27.7288466,52.8560317 22.2839048,49.7870646 C14.6609864,45.4311112 9.41404254,38.7981821 5.75108174,30.9772658 C2.68211458,23.948341 0.801134703,16.5234205 0.108142118,8.8015031 C-0.188854704,5.33654018 -0.0898557632,5.23754124 3.27610822,5.23754124 L41.5886983,5.23754124 Z" id="Path" fill="#025366"></path>
                <path d="M347.495425,5.23754124 C349.376405,5.23754124 350.168396,5.73253594 349.970399,7.71251475 C348.683412,20.8793739 345.11945,33.1552425 336.011548,43.0551366 C329.774615,49.7870646 321.953698,53.4500254 312.845796,54.5390137 C312.350801,54.6380126 311.855806,54.6380126 311.360812,54.6380126 C309.578831,54.5390137 307.400854,54.6380126 306.80686,52.5590349 C306.311866,50.678055 308.291845,49.9850624 309.479832,49.1930709 C320.270716,41.5701525 324.230674,31.0762648 320.666712,18.4044004 C318.884731,12.0684681 316.013762,8.60350522 309.182835,9.49449569 C308.093847,9.59349463 306.80686,9.79149251 306.113868,8.40550734 C305.222877,6.52452747 306.212867,5.03954336 308.390843,5.03954336 L347.495425,5.23754124 Z" id="Path" fill="#025366"></path>
            </g>
        </g>
    </g>
</svg>