<?xml version="1.0" encoding="UTF-8"?>
<svg width="150px" height="13px" viewBox="0 0 150 13" version="1.1" xmlns="http://www.w3.org/2000/svg" xmlns:xlink="http://www.w3.org/1999/xlink">
    <title>olita</title>
    <g id="Page-1" stroke="none" stroke-width="1" fill="none" fill-rule="evenodd">
        <g id="Surfing-Euskadi--desplegado--990" transform="translate(-33.000000, -1584.000000)" fill="#F7FAFB" fill-rule="nonzero">
            <g id="destacado-OLAS" transform="translate(17.000000, 1182.000000)">
                <g id="olita" transform="translate(16.000000, 402.000000)">
                    <path d="M138.590005,12.4559775 C134.656687,12.6576861 131.328496,10.7414546 128.101159,8.62351455 C123.66357,5.79959448 119.225981,5.5978859 114.990101,8.72436884 C108.333718,13.666229 101.475627,13.3636661 94.8192436,8.92607741 C90.3816549,6.00130305 86.549192,6.20301163 82.3133119,9.0269317 C75.6569289,13.4645204 68.8996915,13.7670832 62.1424542,9.0269317 C58.209137,6.20301163 54.2758197,6.10215734 50.1407939,9.12778599 C43.7869738,13.7670832 36.9288822,13.7670832 30.3733534,9.53120314 C25.6332019,6.40472021 21.3973218,6.60642878 16.8588788,9.53120314 C12.2195815,12.5568318 7.37857571,12.6576861 2.63842416,9.83376601 C0.823046974,8.72436884 -0.891475926,7.41326309 0.52048411,4.99276017 C1.73073557,2.87482012 3.64696705,3.17738298 5.36148995,4.18592586 C8.79053575,6.40472021 11.8161644,5.39617732 15.1443559,3.37909156 C20.8930503,-0.251662818 26.7425991,-0.453371395 32.5921478,3.58080014 C37.3322993,6.80813736 42.1733052,7.51411738 47.014311,3.78250871 C52.7630054,-0.655079971 58.8142627,-0.554225683 64.6638114,3.37909156 C70.0090887,7.00984594 74.7492403,6.90899165 79.892809,3.27823727 C85.5406491,-0.655079971 91.4910521,-0.554225683 97.2397465,3.27823727 C102.181607,6.60642878 106.921758,7.00984594 112.065327,3.17738298 C117.914876,-1.05849712 124.36955,-0.957642836 130.521662,2.87482012 C135.463522,5.90044877 140.102819,7.71582595 145.347242,3.883363 C146.658348,2.97567441 148.272016,3.07652869 149.381414,4.58934302 C150.591665,6.30386592 149.885685,7.81668024 148.473725,8.92607741 C145.649805,11.3465803 142.422468,12.5568318 138.590005,12.4559775 Z" id="Path"></path>
                </g>
            </g>
        </g>
    </g>
</svg>