<?xml version="1.0" encoding="UTF-8"?>
<svg width="130px" height="171px" viewBox="0 0 130 171" version="1.1" xmlns="http://www.w3.org/2000/svg" xmlns:xlink="http://www.w3.org/1999/xlink">
    <title>surfing-euskadi</title>
    <g id="Page-1" stroke="none" stroke-width="1" fill="none" fill-rule="evenodd">
        <g id="Surfing-Euskadi" transform="translate(-1335.000000, -283.000000)" fill-rule="nonzero">
            <g id="surfing-euskadi" transform="translate(1335.375000, 283.300000)">
                <path d="M48.625,0 C49.425,0.4 49.925,1.1 50.325,1.8 C55.325,9.9 60.325,18 65.425,26.1 C65.725,26.5 65.925,26.9 66.225,27.3 C66.625,27.1 66.725,26.7 66.925,26.4 C69.725,21.6 72.525,16.8 75.325,12.1 C76.825,9.5 78.425,9.5 80.225,11.9 C83.925,17 87.625,22.2 91.425,27.3 C91.825,27.8 92.125,28.1 92.825,28 C96.525,27.5 99.825,29.7 100.925,33.3 C101.125,34 101.425,34.2 102.125,34.3 C104.625,34.4 106.525,35.9 107.125,38.1 C107.825,40.6 106.825,42.9 104.625,44.3 C104.025,44.6 104.025,44.8 104.425,45.3 C107.425,49.4 110.325,53.4 113.225,57.5 C113.525,58 113.925,58.1 114.525,58.1 C117.925,58.1 120.625,59.8 123.425,61.6 C123.625,61.8 123.725,62 123.625,62.2 C123.225,63.2 123.425,64.2 123.525,65.2 C123.525,65.9 123.325,66 122.725,65.8 C122.025,65.6 121.325,65.2 120.725,64.8 C119.425,64 118.025,63.1 116.525,62.6 C114.725,62.1 113.125,62.3 111.625,63.4 C106.925,66.8 102.725,66.8 98.025,63.5 C95.225,61.5 92.025,61.4 89.425,63.5 C85.125,67 80.025,66.3 75.925,63.6 C73.025,61.7 71.125,61.7 68.225,63.7 C64.825,66.1 61.225,66.7 57.425,65.2 C56.425,64.8 55.625,64.2 54.725,63.6 C52.425,62.1 49.825,61.6 47.325,63.7 C43.525,66.9 37.925,66.9 33.725,63.7 C31.125,61.8 28.425,62.1 26.125,63.7 C22.125,66.4 18.325,66.3 14.725,63.1 C13.725,62.2 12.725,62 11.625,62.6 C10.325,63.3 8.925,63.9 7.325,64.1 C6.525,64.2 6.025,64.2 6.125,63.1 C6.225,62.2 5.925,61.2 6.225,60.4 C6.525,59.6 7.725,59.9 8.525,59.5 C9.625,58.9 10.825,58.3 12.025,58.1 C12.425,58.1 12.525,57.8 12.725,57.5 C15.325,53.1 18.025,48.7 20.625,44.3 C20.625,44.2 20.625,44.2 20.625,44 C19.725,43.9 18.925,44 18.025,43.8 C15.325,43.2 13.725,40.8 13.925,37.9 C14.125,35.3 16.325,33.3 19.025,33.3 C19.925,33.3 20.325,33.1 20.625,32.1 C21.825,28.3 25.725,26.2 29.625,27.2 C30.425,27.4 30.725,27.3 31.125,26.6 C36.025,18.4 40.925,10.2 45.725,2.1 C46.225,1.3 46.725,0.7 47.425,0.2 C47.725,0 48.125,0 48.625,0 Z M81.325,21.7 C81.425,21.7 81.525,21.8 81.625,21.7 C81.725,21.6 81.625,21.5 81.525,21.5 C80.325,19.8 79.225,18.2 78.025,16.4 C77.725,16.8 77.525,17.1 77.425,17.4 C75.425,20.7 73.525,24.1 71.525,27.4 C70.825,28.5 70.925,29.3 71.925,30.1 C72.625,29 73.225,28 73.925,27 C74.625,25.9 75.425,25.9 76.225,26.9 C76.325,27.1 76.525,27.3 76.725,27.5 C77.825,25.8 78.825,24.2 79.825,22.6 C80.125,22 80.525,21.6 81.325,21.7 Z M82.925,44.5 C82.925,44.4 82.825,44.3 82.725,44.4 C82.725,44.4 82.825,44.5 82.825,44.6 C84.025,46.3 85.125,48 86.325,49.7 C86.725,50.3 86.825,51 86.125,51.5 C85.425,52 84.825,51.7 84.425,51.1 C82.625,48.5 80.825,45.9 79.025,43.3 C78.425,42.5 78.625,41.8 79.525,41.4 C79.825,41.3 80.025,41.3 80.025,40.9 C79.825,39.1 80.025,37.1 78.425,35.7 C78.225,35.5 78.125,35.3 77.925,35 C77.525,34.4 77.625,33.8 78.225,33.4 C78.825,33 79.525,33 79.825,33.6 C80.725,35.4 81.625,35.4 83.325,34.4 C85.225,33.3 86.325,32.7 87.625,30.9 C87.625,30.8 87.725,30.8 87.725,30.7 C87.925,30.3 86.825,28.1 86.325,28.1 C86.225,28.1 86.125,28.2 86.025,28.3 C85.125,29.1 84.425,28.7 83.825,27.9 C82.925,26.8 82.025,25.8 81.025,24.7 C79.925,26.5 78.825,28.3 77.725,30 C77.025,31.1 76.225,31.1 75.425,30.1 C75.325,29.9 75.125,29.7 74.925,29.4 C74.225,30.5 73.525,31.6 72.925,32.6 C72.225,33.7 71.425,33.7 70.625,32.7 C70.325,32.3 70.025,31.8 69.725,31.4 C69.625,31.2 69.525,30.9 69.225,31 C69.025,31.1 68.825,31.4 68.925,31.7 C69.025,32 69.225,32.2 69.325,32.4 C74.825,41.2 80.325,50.1 85.725,58.9 C86.125,59.6 86.425,59.9 87.225,59.3 C87.825,58.8 88.925,58.6 89.025,58.1 C89.225,57.4 88.225,56.8 87.825,56.1 C87.825,56 87.725,56 87.725,55.9 C87.325,55.2 87.225,54.6 87.925,54.1 C88.625,53.6 89.225,53.9 89.625,54.6 C90.125,55.4 90.725,56.2 91.225,57 C91.425,57.4 91.725,57.5 92.225,57.5 C95.125,57.3 97.725,58.1 100.125,59.8 C100.425,60 100.525,60.3 101.025,59.8 C101.725,59 102.525,59.1 103.025,60.1 C103.725,61.3 104.625,61.3 105.725,61.2 C105.725,60.7 105.325,60.4 105.125,60.1 C102.925,57 100.825,53.9 98.625,50.8 C98.025,49.9 97.425,49 96.825,48.1 C96.425,47.5 96.325,46.8 96.925,46.3 C97.625,45.8 98.225,46.1 98.725,46.8 C98.825,47 99.025,47.2 99.125,47.4 C101.925,51.4 104.725,55.4 107.525,59.5 C107.725,59.8 107.825,60.5 108.525,59.9 C109.225,59.4 108.725,59.1 108.425,58.8 C105.225,54.4 102.025,50 98.925,45.6 C98.125,44.5 97.325,44.3 96.125,45.1 C95.725,45.4 95.125,45.5 94.825,45.2 C94.125,44.5 93.325,44.7 92.525,44.8 C92.625,45.4 93.025,45.8 93.325,46.2 C93.825,46.9 94.025,47.6 93.225,48.1 C92.425,48.7 91.825,48.2 91.325,47.5 C90.925,46.9 90.425,46.4 90.225,45.8 C89.625,44.6 88.725,44.6 87.525,44.8 C89.425,47.5 91.125,50 92.925,52.6 C93.425,53.3 93.525,53.9 92.825,54.5 C92.025,55 91.525,54.6 91.025,54 C89.225,51.5 87.225,49.1 85.925,46.4 C85.125,44.8 84.225,44.7 83.025,44.5 C83.025,44.5 82.925,44.5 82.925,44.5 Z M74.625,58 C72.525,54.4 70.525,51 68.625,47.6 C68.225,46.9 67.725,46.2 67.425,45.4 C67.125,44.8 67.225,44.2 67.825,43.8 C68.525,43.4 69.025,43.6 69.525,44.2 C69.625,44.4 69.725,44.6 69.925,44.8 C72.525,49.2 75.025,53.6 77.625,58 C77.825,58.3 78.125,58.7 78.125,59.1 C78.025,60.2 78.925,60.4 79.625,60.5 C80.225,60.6 80.825,60.5 81.525,60.5 C74.825,49.7 68.225,39 61.525,28.2 C60.625,29.2 59.825,30.1 58.725,28.6 C58.525,28.3 58.425,28.8 58.325,28.9 C57.525,29.8 56.725,29.7 56.125,28.7 C55.525,27.8 55.025,26.9 54.425,25.9 C53.525,24.4 52.625,22.9 51.625,21.3 C50.325,23.4 49.125,25.4 47.925,27.4 C46.425,30 46.325,30 44.025,28.1 C43.525,27.7 43.225,27.8 42.925,28.3 C42.125,29.6 41.325,30.7 40.525,31.7 C39.725,32.8 39.125,32.9 38.025,32 C36.925,31 35.725,30 34.625,29.1 C33.925,29.8 33.725,30.5 34.325,31.3 C34.525,31.6 34.625,32 34.725,32.3 C34.725,33 35.125,33 35.725,33 C38.925,33.1 41.125,35.3 41.125,38.5 C41.125,41.6 38.825,43.8 35.625,43.8 C32.725,43.8 29.825,43.8 26.925,43.8 C26.125,43.8 25.725,44 25.325,44.7 C22.725,49.2 20.025,53.7 17.325,58.1 C16.725,59.1 17.325,60.6 18.525,60.4 C20.525,60.2 22.525,60.5 24.425,59.4 C27.825,57.4 31.525,57 34.925,59.4 C36.825,60.7 38.625,61.3 40.825,61.1 C41.225,61.1 41.525,61.1 41.925,61.1 C43.025,61.2 44.025,60.8 44.725,60.1 C48.225,57 53.025,57.1 56.625,59.7 C58.625,61.1 60.525,60.7 62.725,60.8 C61.525,58.9 60.525,57.2 59.525,55.5 C58.925,54.5 58.325,53.5 57.825,52.5 C57.525,52 57.625,51.4 58.025,51 C58.425,50.6 58.925,50.6 59.425,50.9 C59.825,51.1 59.925,51.5 60.125,51.8 C61.625,54.4 63.225,57.1 64.725,59.7 C64.925,60 65.025,60.5 65.525,60.1 C65.825,59.8 66.325,59.7 65.925,59.1 C65.725,58.8 65.525,58.5 65.425,58.2 C65.225,57.6 65.325,57 65.925,56.7 C66.525,56.4 67.125,56.5 67.525,57.1 C67.625,57.3 67.825,57.5 67.925,57.7 C68.225,58.4 68.625,58.6 69.325,58.3 C70.725,57.8 72.025,57.1 73.525,58 C73.825,58 74.125,58 74.625,58 Z M48.025,6.7 C47.725,7.1 47.525,7.5 47.325,7.8 C44.025,13.3 40.825,18.7 37.525,24.2 C35.825,27.1 35.825,27.1 38.425,29.1 C38.925,29.5 39.125,29.5 39.425,29 C40.225,27.8 41.025,26.7 41.825,25.6 C42.525,24.6 43.225,24.6 44.125,25.4 C44.325,25.6 44.525,25.7 44.725,26 C45.325,26.7 45.625,26.4 46.025,25.8 C47.325,23.6 48.625,21.4 50.025,19.2 C50.925,17.6 51.825,17.6 52.825,19.2 C54.125,21.4 55.525,23.6 56.925,26 C57.425,24.9 58.125,24.6 59.225,25 C55.525,18.7 51.825,12.8 48.025,6.7 Z M27.325,41.4 C30.025,41.4 32.825,41.4 35.525,41.4 C37.425,41.4 38.525,40.1 38.525,38.4 C38.525,36.7 37.325,35.6 35.525,35.5 C34.925,35.5 34.425,35.4 33.825,35.5 C32.825,35.6 32.425,35.3 32.425,34.2 C32.325,31.5 30.325,29.5 27.925,29.3 C25.325,29.1 23.125,30.7 22.425,33.1 C22.225,33.9 22.625,35 21.925,35.4 C21.225,35.8 20.225,35.5 19.325,35.5 C17.225,35.5 16.025,36.6 15.925,38.4 C15.925,40.3 17.125,41.4 19.225,41.4 C22.025,41.4 24.725,41.4 27.325,41.4 Z M93.525,42.4 C96.225,42.4 99.025,42.4 101.725,42.4 C103.525,42.4 104.725,41.2 104.725,39.6 C104.725,37.9 103.525,36.7 101.725,36.6 C101.225,36.6 100.725,36.5 100.125,36.6 C98.925,36.8 98.625,36.3 98.525,35.1 C98.425,32.6 96.525,30.6 94.025,30.3 C91.525,30 89.325,31.6 88.625,34 C88.325,34.8 89.025,36 88.025,36.4 C87.225,36.7 86.225,36.5 85.325,36.5 C83.425,36.5 82.125,37.7 82.125,39.5 C82.125,41.2 83.425,42.3 85.325,42.3 C88.125,42.4 90.825,42.4 93.525,42.4 Z" id="Shape" fill="#045365"></path>
                <path d="M128.625,153.8 C126.525,153.8 124.425,153.8 122.325,153.8 C121.425,153.8 121.325,153.5 121.225,152.7 C121.225,151.6 121.225,150.7 122.725,151 C123.225,151.1 123.425,150.8 123.425,150.3 C123.425,146.7 123.425,143.1 123.425,139.5 C123.425,138.6 122.925,138.7 122.425,138.8 C120.825,139 121.425,137.9 121.325,137.1 C121.225,136.1 121.625,136 122.425,136 C124.525,136.1 126.525,136 128.625,136 C128.625,137 128.625,137.9 128.625,138.9 C128.425,138.9 128.325,138.8 128.125,138.8 C126.425,138.7 126.425,138.7 126.425,140.4 C126.425,143.3 126.425,146.3 126.425,149.2 C126.425,151.2 126.425,151.2 128.525,150.9 C128.625,151.9 128.625,152.9 128.625,153.8 Z" id="Path" fill="#085668"></path>
                <path d="M128.625,162 C127.925,162 127.525,162.4 127.225,163.1 C126.325,165 125.425,166.9 124.525,168.8 C123.925,170 122.825,170.6 121.825,170.4 C121.225,170.2 120.725,169.9 120.925,169.1 C121.125,168.4 121.625,168.3 122.225,168.8 C122.525,169 122.625,169 122.825,168.7 C123.225,168.1 123.825,167.5 123.525,166.8 C122.925,165.3 122.225,163.9 121.525,162.5 C121.425,162.3 121.225,162.2 120.925,162.1 C120.325,162 120.525,161.5 120.525,161.2 C120.525,160.7 120.825,160.7 121.225,160.7 C121.925,160.7 122.625,160.7 123.425,160.7 C123.725,160.7 124.125,160.6 124.125,161.1 C124.125,161.4 124.425,162 123.725,162 C123.125,162 123.325,162.3 123.425,162.6 C123.825,163.5 124.225,164.3 124.725,165.5 C125.225,164.4 125.625,163.5 126.025,162.6 C126.225,162.2 126.225,162 125.725,162 C125.225,162 125.225,161.7 125.225,161.4 C125.225,161.1 125.125,160.7 125.525,160.8 C126.625,160.9 127.725,160.4 128.725,161.1 C128.625,161.3 128.625,161.6 128.625,162 Z" id="Path" fill="#085668"></path>
                <path d="M93.325,70 C91.725,70 90.325,70.5 89.125,71.5 C84.925,75 79.625,74.2 75.625,71.5 C72.925,69.7 70.825,69.6 68.225,71.5 C64.125,74.6 58.625,74.9 54.425,71.5 C52.325,69.8 49.625,69.5 47.125,71.6 C43.225,74.8 37.725,74.8 33.525,71.7 C30.925,69.7 28.125,70 25.625,71.8 C22.425,74.1 18.825,74.1 15.725,72.1 C15.125,71.7 14.825,71.4 15.425,70.8 C15.625,70.6 15.725,70.4 15.825,70.2 C16.325,69.6 16.625,68.8 17.325,68.5 C18.025,68.1 18.525,69 19.225,69.2 C20.725,69.6 22.025,69.3 23.225,68.4 C25.925,66.4 28.925,65.7 32.225,66.4 C33.525,66.7 34.625,67.3 35.625,68.1 C38.925,70.5 41.925,70.4 45.125,67.9 C48.125,65.5 52.225,65.4 55.925,67.5 C56.425,67.8 56.825,68.1 57.325,68.4 C60.025,70.3 62.725,70.3 65.525,68.3 C66.925,67.3 68.425,66.5 70.125,66.2 C72.925,65.6 75.525,66.3 77.825,67.9 C79.625,69.2 81.625,70 83.925,69.6 C84.825,69.4 85.525,69 86.225,68.5 C90.625,65.1 95.825,65 100.325,68.2 C102.925,70 105.525,70.5 108.325,68.7 C108.825,68.4 109.025,68.5 109.325,68.9 C109.825,69.4 110.325,70 110.825,70.5 C111.825,71.5 111.825,71.5 110.525,72.4 C106.725,74.9 102.125,74.7 98.225,71.9 C96.725,70.7 95.125,70 93.325,70 Z" id="Path" fill="#045365"></path>
                <path d="M29.825,74.2 C31.825,74.2 33.725,74.8 35.325,76 C38.525,78.4 42.225,78.5 45.225,75.9 C48.225,73.4 52.625,73.2 56.125,75.8 C59.725,78.5 62.925,78.3 66.425,75.8 C70.025,73.2 74.125,73.6 77.825,76.1 C79.625,77.3 81.625,78.2 83.925,77.7 C84.825,77.5 85.625,77.1 86.325,76.5 C90.325,73.4 95.625,73.2 99.725,75.9 C100.425,76.3 100.525,76.6 99.925,77.2 C99.225,77.9 98.825,78.9 98.025,79.3 C97.225,79.8 96.425,78.7 95.625,78.5 C93.225,77.8 91.025,78.1 89.125,79.7 C84.925,83.2 79.725,82.5 75.625,79.7 C72.825,77.9 70.825,77.8 68.025,79.8 C65.625,81.5 62.925,82.4 59.925,82.1 C57.925,81.9 56.225,81.1 54.725,80 C51.825,77.9 49.725,77.9 46.925,80 C42.925,83 37.625,83 33.325,79.9 C31.125,78.3 28.925,78.1 26.525,79.4 C25.725,79.8 25.425,79.7 25.025,79 C24.725,78.5 24.425,78.1 24.125,77.6 C23.325,76.3 23.325,76.3 24.625,75.7 C26.325,74.7 28.025,74.1 29.825,74.2 Z" id="Path" fill="#045365"></path>
                <path d="M25.825,103.8 C23.725,103.1 23.325,101.3 23.025,99.5 C22.925,98.8 22.625,98.5 22.125,98.1 C16.525,94.5 11.425,90.4 6.825,85.6 C4.825,83.5 3.125,81.3 1.625,78.9 C1.025,77.9 0.525,76.9 0.225,75.7 C-0.475,72.7 1.425,70.5 4.425,70.5 C6.525,70.5 8.425,71.2 10.225,72.2 C15.725,75.2 20.325,79.3 24.625,83.7 C28.325,87.5 31.625,91.6 34.325,96.2 C34.725,96.9 35.125,97.6 35.225,98.4 C35.625,101.3 33.125,103.2 30.125,102.2 C29.225,101.9 28.225,101.5 27.425,101 C26.725,100.6 26.525,100.8 26.325,101.5 C26.125,102.3 26.325,103.1 25.825,103.8 Z M4.025,72.7 C4.125,72.9 4.125,73 4.225,73 C13.225,81.1 22.225,89.2 31.225,97.3 C31.625,97.6 32.025,98.5 32.525,98.1 C33.025,97.7 32.325,97.1 32.025,96.6 C28.325,90.5 23.525,85.3 18.225,80.6 C15.225,77.9 12.025,75.4 8.425,73.7 C7.125,73.1 5.725,72.5 4.025,72.7 Z M2.225,74.2 C2.425,75.9 2.925,77 4.125,78.8 C9.125,85.7 15.525,91.1 22.625,95.8 C22.825,95.9 23.125,96 23.125,96 C23.425,95.4 23.825,94.9 24.125,94.2 C24.325,93.8 23.825,93.6 23.525,93.4 C18.325,88.7 13.125,84 7.925,79.3 C6.125,77.7 4.225,76 2.225,74.2 Z M25.225,98.4 C25.525,98.2 25.825,97.9 26.125,97.7 C26.325,97.5 26.925,97.4 26.525,96.9 C26.325,96.6 26.025,96.3 25.725,96.3 C25.225,96.3 25.325,96.9 25.225,97.2 C25.225,97.5 25.225,98 25.225,98.4 Z M28.025,98.9 C28.825,99.1 29.225,99.8 30.225,99.6 C29.525,99.2 29.425,97.7 28.025,98.9 Z" id="Shape" fill="#055466"></path>
                <path d="M97.825,103.8 C97.625,103 97.425,102.2 97.325,101.4 C97.225,100.8 96.925,100.8 96.525,101 C95.625,101.4 94.725,101.8 93.825,102.2 C92.125,102.8 90.225,102.4 89.325,101.3 C88.125,99.9 88.325,98.3 89.125,96.8 C92.325,91 96.525,86.2 101.225,81.6 C104.825,78.1 108.625,74.9 113.025,72.5 C115.025,71.4 117.125,70.4 119.525,70.5 C122.425,70.6 124.325,72.9 123.625,75.7 C122.925,78.5 121.225,80.8 119.425,82.9 C114.425,88.9 108.425,93.8 101.925,98 C101.225,98.4 100.825,98.9 100.825,99.8 C100.425,102 99.625,103 97.825,103.8 Z M90.825,98.7 C91.225,98.4 91.625,98.1 92.025,97.7 C99.425,91.1 106.825,84.4 114.125,77.7 C115.925,76 117.825,74.4 119.725,72.6 C117.825,72.5 116.225,73 113.825,74.3 C110.425,76.2 107.425,78.6 104.625,81.2 C99.525,85.9 94.925,91 91.325,97 C91.125,97.5 90.625,98 90.825,98.7 C90.825,98.7 90.725,98.7 90.725,98.7 C90.725,98.7 90.725,98.8 90.725,98.8 C90.725,98.8 90.725,98.8 90.825,98.7 Z M100.625,96.1 C100.925,95.9 101.325,95.7 101.625,95.5 C106.425,92.3 110.825,88.7 114.825,84.6 C117.025,82.3 119.125,79.9 120.625,77.1 C121.025,76.3 121.425,75.5 121.425,74.4 C121.225,74.6 121.125,74.6 121.025,74.7 C114.425,80.7 107.825,86.6 101.225,92.6 C99.625,94.1 99.625,94.1 100.525,96 C100.525,96 100.525,96 100.625,96.1 Z M98.525,98.5 C98.525,97.6 98.625,96.8 98.125,96.1 C96.825,97 96.825,97 98.525,98.5 Z M95.725,98.9 C94.225,97.6 94.125,99.5 93.325,99.5 C93.325,99.6 93.425,99.7 93.425,99.8 C94.125,99.6 94.825,99.3 95.725,98.9 Z" id="Shape" fill="#055466"></path>
                <path d="M82.825,90.1 C80.125,90 77.825,89.2 75.625,87.7 C72.925,85.9 70.825,85.8 68.125,87.7 C65.725,89.4 63.025,90.3 60.025,90 C58.025,89.8 56.325,89.1 54.825,87.9 C54.025,87.3 53.025,86.8 52.025,86.5 C50.325,86 48.825,86.3 47.425,87.5 C43.325,90.7 38.225,91 33.825,88.2 C33.225,87.8 33.025,87.5 33.525,86.9 C33.625,86.8 33.625,86.8 33.625,86.7 C34.125,86 34.525,84.9 35.225,84.5 C36.025,84 36.825,85.1 37.625,85.4 C40.125,86.3 42.425,85.9 44.525,84.3 C48.125,81.5 52.025,81.3 55.925,83.6 C56.325,83.8 56.625,84.1 57.025,84.3 C59.825,86.3 62.525,86.3 65.325,84.3 C66.725,83.3 68.225,82.5 69.925,82.2 C72.725,81.6 75.325,82.3 77.625,83.9 C79.525,85.2 81.525,86.1 83.925,85.5 C84.125,85.5 84.225,85.4 84.425,85.4 C85.025,85.1 85.925,84.5 86.225,84.7 C87.225,85.3 88.025,86.3 88.825,87.1 C89.225,87.5 88.725,87.7 88.525,87.9 C86.825,89.5 84.825,90.1 82.825,90.1 Z" id="Path" fill="#045365"></path>
                <path d="M101.325,122.4 C101.325,119.7 101.325,117.3 101.325,114.9 C101.325,114.1 100.825,114.2 100.325,114.3 C98.625,114.6 99.225,113.3 99.125,112.5 C98.925,111.3 99.625,111.4 100.425,111.5 C102.025,111.5 103.725,111.5 105.325,111.5 C106.125,111.5 106.425,111.6 106.325,112.5 C106.325,112.9 106.325,113.2 106.325,113.6 C106.425,114.2 106.125,114.5 105.525,114.4 C104.525,114.2 104.425,114.8 104.425,115.6 C104.425,119.8 104.425,124 104.425,128.2 C104.425,128.6 104.725,129.2 104.025,129.3 C103.425,129.4 102.825,129.6 102.325,128.9 C100.825,126.9 99.225,124.9 97.625,122.9 C96.225,121.2 94.825,119.4 93.325,117.5 C93.125,120.5 93.125,123.3 93.225,126.1 C93.225,126.9 93.925,126.6 94.325,126.6 C95.825,126.4 95.325,127.5 95.425,128.2 C95.525,129.1 95.225,129.4 94.325,129.3 C92.625,129.2 90.925,129.2 89.325,129.3 C88.325,129.4 88.025,129 88.325,128.2 C88.425,127.7 87.725,126.6 88.925,126.7 C90.325,126.8 90.325,126.1 90.325,125.1 C90.225,121.9 90.225,118.7 90.325,115.5 C90.325,114.7 90.225,114.3 89.325,114.4 C88.425,114.6 88.225,114.2 88.225,113.3 C88.225,111.5 88.225,111.7 90.025,111.5 C92.225,111.3 93.625,112 94.825,113.8 C96.625,116.7 98.925,119.4 101.325,122.4 Z" id="Path" fill="#055466"></path>
                <path d="M62.425,144.3 C64.325,142.5 66.125,140.7 67.925,138.8 C67.925,138.8 67.925,138.7 67.825,138.7 C67.325,138.6 66.625,139 66.425,138.4 C66.225,137.8 66.325,137 66.425,136.3 C66.425,135.9 66.825,136 67.125,136 C69.225,136 71.325,136 73.425,136 C74.025,136 74.225,136.2 74.125,136.8 C74.125,137.2 74.125,137.6 74.125,138 C74.225,138.7 73.925,138.9 73.325,138.8 C72.525,138.7 71.925,139.1 71.325,139.7 C70.225,140.9 69.025,142 67.825,143.1 C67.425,143.5 67.325,143.8 67.725,144.3 C68.925,146.2 70.125,148.1 71.225,150 C71.625,150.8 72.125,151.1 73.025,151 C74.425,150.7 74.125,151.8 74.225,152.5 C74.325,153.3 74.125,153.7 73.125,153.8 C70.725,154.1 69.325,153.3 68.325,151.1 C67.625,149.4 66.425,148 65.525,146.4 C65.225,145.8 64.925,145.8 64.525,146.3 C63.525,147.4 62.225,148.2 62.525,150.1 C62.625,150.9 62.825,151.2 63.625,151.1 C65.125,150.8 64.725,151.9 64.825,152.7 C64.925,153.7 64.525,153.9 63.625,153.9 C61.925,153.8 60.225,153.8 58.525,153.9 C57.725,153.9 57.425,153.7 57.525,152.9 C57.525,152.7 57.525,152.4 57.525,152.2 C57.425,151.4 57.725,151 58.625,151.1 C59.425,151.2 59.625,150.9 59.625,150.1 C59.625,146.7 59.625,143.3 59.625,139.9 C59.625,139.2 59.525,138.8 58.625,138.9 C57.025,139.1 57.725,137.9 57.525,137.2 C57.325,136.3 57.825,136.1 58.625,136.2 C60.325,136.3 62.025,136.3 63.725,136.2 C64.525,136.2 64.825,136.3 64.825,137.2 C64.825,138.4 64.725,139.1 63.225,138.9 C62.825,138.8 62.525,138.9 62.525,139.4 C62.425,141 62.425,142.7 62.425,144.3 Z" id="Path" fill="#055466"></path>
                <path d="M86.625,136.1 C87.725,136.1 88.825,136.1 89.925,136.1 C91.625,136.1 91.625,136.1 91.525,137.9 C91.525,138.3 91.625,138.9 90.925,138.8 C89.425,138.6 89.725,139.3 90.025,140.2 C91.225,143.5 92.425,146.8 93.525,150.1 C93.725,150.7 93.925,151.2 94.725,151.1 C95.225,151 95.425,151.3 95.425,151.8 C95.425,152.2 95.425,152.7 95.425,153.1 C95.525,153.8 95.225,153.9 94.625,153.9 C92.925,153.9 91.225,153.9 89.525,153.9 C88.825,153.9 88.725,153.6 88.725,153 C88.725,152 88.425,150.8 90.225,151.2 C90.325,151.2 90.425,151.2 90.425,151.2 C90.525,151.2 90.625,151 90.625,151 C90.325,150.2 90.125,149.4 89.825,148.6 C89.625,148.1 89.025,148.3 88.625,148.3 C87.225,148.3 85.925,148.4 84.525,148.3 C83.325,148.2 82.925,148.6 82.625,149.7 C82.225,151.1 82.125,151.1 83.525,151.2 C84.025,151.2 84.225,151.4 84.225,151.9 C84.225,152 84.225,152.1 84.225,152.3 C84.225,154 84.225,154 82.625,154 C81.225,154 79.725,154 78.325,154 C77.725,154 77.325,153.9 77.425,153.2 C77.425,152.8 77.425,152.4 77.425,152 C77.425,151.5 77.525,151.2 78.025,151.3 C78.825,151.4 79.025,151 79.325,150.4 C80.525,146.9 81.725,143.5 83.025,140.1 C83.325,139.3 83.225,139 82.325,139.1 C81.525,139.2 81.425,138.8 81.425,138.1 C81.525,136 81.225,136.4 83.125,136.4 C84.425,136.1 85.525,136.1 86.625,136.1 Z M89.025,145.7 C88.225,143.4 87.425,141.2 86.625,138.8 C85.725,141.2 85.025,143.4 84.225,145.6 C84.525,145.6 84.725,145.6 84.925,145.6 C86.125,145.7 87.525,145.7 89.025,145.7 Z" id="Shape" fill="#055466"></path>
                <path d="M43.625,111.4 C45.325,111.4 47.325,111.3 49.125,111.8 C51.125,112.4 52.625,113.6 53.025,115.7 C53.425,118.1 52.625,119.9 50.525,121.2 C49.925,121.5 49.825,121.8 50.225,122.4 C50.725,123.2 51.225,124.1 51.725,125 C52.225,126 52.725,126.7 53.925,126.4 C54.425,126.3 54.525,126.6 54.525,127 C54.725,129.1 54.725,129 52.625,129.1 C50.925,129.2 50.025,128.8 49.425,127.2 C48.825,125.8 48.025,124.5 47.325,123.1 C46.725,121.9 45.725,122.5 44.925,122.5 C44.125,122.5 44.625,123.3 44.525,123.7 C44.425,124 44.525,124.3 44.525,124.7 C44.425,125.9 44.525,126.8 46.125,126.4 C46.525,126.3 46.825,126.5 46.725,127 C46.725,127.4 46.625,127.8 46.725,128.2 C46.825,129 46.525,129.1 45.825,129.1 C44.025,129.1 42.225,129 40.425,129.1 C39.625,129.1 39.425,128.9 39.425,128.1 C39.425,127 39.325,126.1 40.925,126.4 C41.425,126.5 41.525,126.2 41.525,125.8 C41.525,122.2 41.525,118.5 41.525,114.9 C41.525,114.1 41.025,114.2 40.525,114.3 C38.825,114.5 39.525,113.2 39.425,112.5 C39.225,111.5 39.825,111.4 40.625,111.5 C41.325,111.5 42.425,111.4 43.625,111.4 Z M44.325,117.3 C44.725,117.9 43.625,119.2 44.725,119.8 C45.525,120.2 46.725,120 47.725,119.7 C49.225,119.2 50.125,117.8 49.825,116.5 C49.425,114.9 47.725,114 45.125,114.4 C43.625,114.6 44.825,116 44.425,116.7 C44.225,116.7 44.325,116.9 44.325,117.3 Z" id="Shape" fill="#045365"></path>
                <path d="M103.925,136.1 C105.725,136.1 107.625,136 109.425,136.4 C114.125,137.4 116.625,140.5 116.525,145.3 C116.425,149.7 113.525,152.8 109.025,153.5 C106.125,154 103.225,153.7 100.325,153.8 C99.825,153.8 99.725,153.6 99.725,153.2 C99.725,152.8 99.725,152.5 99.725,152.1 C99.625,151.2 99.925,150.9 100.825,151.1 C101.525,151.2 101.825,151 101.825,150.2 C101.825,146.7 101.825,143.3 101.825,139.8 C101.825,139 101.625,138.8 100.925,138.9 C99.325,139.1 100.025,137.9 99.825,137.2 C99.625,136.3 100.125,136.1 100.925,136.2 C101.725,136.1 102.825,136.1 103.925,136.1 Z M104.625,145 C104.625,146 104.625,147.1 104.625,148.1 C104.625,151.4 104.625,151.4 107.925,151 C111.025,150.6 113.125,148.5 113.325,145.4 C113.525,142.2 111.925,140 108.725,139.2 C107.725,138.9 106.625,139 105.625,138.9 C104.825,138.8 104.625,139.1 104.625,139.9 C104.725,141.5 104.625,143.2 104.625,145 Z" id="Shape" fill="#055466"></path>
                <path d="M124.225,127.9 C122.025,129.4 119.825,129.8 117.525,129.3 C113.325,128.3 110.825,124.7 110.925,119.7 C110.925,115.9 113.925,112.3 117.825,111.4 C120.425,110.8 122.925,111.1 125.225,112.5 C126.425,113.2 127.225,114.2 127.125,115.7 C127.025,116.9 126.225,117.6 125.125,117.6 C123.925,117.5 123.125,116.8 123.225,115.6 C123.325,114.7 122.825,114.4 122.125,114.2 C119.425,113.4 116.525,114.5 115.125,116.8 C113.525,119.4 113.925,122.9 115.925,125 C117.825,126.9 121.125,127.3 123.625,125.9 C124.125,125.6 124.225,125.2 124.225,124.7 C124.225,122.5 124.225,122.5 122.125,122.5 C121.725,122.5 121.425,122.5 121.025,122.5 C120.025,122.7 119.825,122.3 119.725,121.3 C119.725,120.1 120.025,119.8 121.125,119.9 C122.825,120 124.525,120 126.225,119.9 C126.925,119.9 127.125,120.1 127.125,120.8 C127.125,123.2 127.125,125.7 127.125,128.1 C127.125,128.9 126.925,129.2 126.125,129.1 C125.825,129.1 125.525,129.1 125.325,129.1 C124.625,129.2 123.825,129.2 124.225,127.9 Z" id="Path" fill="#055466"></path>
                <path d="M20.225,143.9 C20.225,142.3 20.225,141.1 20.225,139.8 C20.225,139.1 20.125,138.7 19.325,138.8 C18.525,138.9 18.225,138.6 18.225,137.8 C18.325,135.7 18.025,136.1 19.925,136.1 C21.425,136.1 22.925,136.1 24.425,136.1 C25.225,136.1 25.425,136.3 25.325,137 C25.325,137.3 25.325,137.6 25.325,137.8 C25.425,138.6 25.125,138.9 24.325,138.8 C23.425,138.6 23.125,139 23.125,140 C23.225,142.5 23.125,145 23.125,147.4 C23.225,150.3 25.025,151.7 27.625,151.2 C29.125,150.9 30.125,149.9 30.225,148.2 C30.325,145.3 30.225,142.4 30.325,139.5 C30.325,138.7 29.725,138.8 29.325,138.9 C27.725,139.1 28.325,137.9 28.225,137.2 C28.025,136.2 28.625,136.1 29.425,136.1 C31.025,136.1 32.725,136.2 34.325,136.1 C35.125,136.1 35.425,136.3 35.325,137.1 C35.325,137.4 35.325,137.7 35.325,138.1 C35.425,138.7 35.125,139 34.525,138.9 C33.525,138.7 33.425,139.2 33.425,140.1 C33.425,143.1 33.725,146 33.225,149 C32.725,152.5 30.325,154.3 26.525,154.2 C22.925,154.1 20.725,152.2 20.225,148.8 C20.125,147 20.325,145.3 20.225,143.9 Z" id="Path" fill="#085668"></path>
                <path d="M29.925,119.1 C29.925,117.8 29.925,116.5 29.925,115.3 C29.925,114.5 29.725,114.1 28.925,114.3 C27.925,114.5 27.625,114 27.725,113.1 C27.825,111.5 27.725,111.5 29.325,111.5 C30.925,111.5 32.425,111.5 34.025,111.5 C34.825,111.5 35.025,111.8 34.925,112.5 C34.925,112.8 34.925,113.1 34.925,113.5 C35.025,114.2 34.825,114.6 34.025,114.4 C33.225,114.3 32.925,114.6 32.925,115.4 C32.925,117.9 32.925,120.3 32.825,122.8 C32.725,128.4 27.725,131.3 22.725,128.8 C20.525,127.7 19.625,125.7 19.625,123.4 C19.525,120.7 19.525,118 19.525,115.3 C19.525,114.6 19.325,114.2 18.625,114.4 C17.725,114.6 17.525,114.1 17.625,113.3 C17.625,112.9 17.625,112.6 17.625,112.2 C17.625,111.7 17.725,111.5 18.325,111.5 C20.325,111.5 22.225,111.5 24.225,111.5 C24.725,111.5 24.925,111.7 24.925,112.2 C24.925,112.6 24.925,113 24.925,113.4 C25.025,114.2 24.625,114.5 23.925,114.4 C23.025,114.3 22.725,114.6 22.825,115.5 C22.925,118.1 22.725,120.7 22.825,123.3 C22.925,126 25.025,127.4 27.625,126.7 C29.125,126.3 29.925,125.1 30.025,123.2 C30.025,121.7 29.925,120.4 29.925,119.1 C29.925,119.1 29.925,119.1 29.925,119.1 Z" id="Path" fill="#055466"></path>
                <path d="M50.625,90.4 C52.925,90.5 55.025,91.2 56.825,92.5 C60.225,94.9 62.425,94.8 65.825,92.4 C69.625,89.8 73.925,89.7 77.325,92 C78.125,92.5 78.225,93 77.425,93.6 C77.225,93.7 77.125,93.9 77.025,94 C76.125,95.3 75.225,95.8 73.525,94.9 C71.525,93.8 69.625,94.8 67.825,96 C65.425,97.7 62.825,98.5 59.825,98.3 C57.825,98.1 56.125,97.3 54.525,96.1 C53.125,95.1 51.525,94.4 49.725,94.6 C49.425,94.6 49.125,94.8 48.825,94.8 C48.125,94.9 47.525,95.9 47.125,95.6 C46.225,94.9 45.425,93.9 44.725,93 C44.325,92.6 44.825,92.4 45.125,92.2 C46.825,91 48.625,90.4 50.625,90.4 Z" id="Path" fill="#045365"></path>
                <path d="M7.025,153.8 C5.225,153.8 3.325,153.8 1.525,153.8 C0.625,153.8 0.425,153.5 0.525,152.7 C0.525,152.4 0.525,152.1 0.525,151.9 C0.425,151.2 0.725,150.9 1.425,151 C2.425,151.2 2.525,150.7 2.525,149.8 C2.525,146.5 2.525,143.2 2.525,139.9 C2.525,139.1 2.425,138.7 1.525,138.8 C-0.075,139 0.725,137.8 0.525,137.1 C0.325,136.3 0.725,136 1.525,136 C5.225,136 9.025,136 12.725,136 C13.425,136 13.725,136.2 13.625,136.9 C13.525,138 13.525,139.1 13.625,140.1 C13.625,140.9 13.425,141.1 12.725,141 C12.425,141 12.125,141 11.925,141 C11.025,141.1 10.625,140.8 10.725,139.8 C10.925,138.8 10.425,138.5 9.425,138.6 C8.425,138.7 7.325,138.7 6.325,138.6 C5.625,138.6 5.425,138.8 5.425,139.5 C5.525,140.8 4.925,142.4 5.725,143.2 C6.325,143.8 8.025,143.4 9.225,143.4 C10.725,143.4 11.225,144.2 10.825,145.7 C10.725,146.2 10.325,146 10.025,146 C8.725,146 7.425,146 6.225,146 C5.625,146 5.425,146.2 5.525,146.7 C5.525,147.9 5.525,149 5.525,150.2 C5.525,150.9 5.825,151 6.325,151 C7.425,151 8.525,150.9 9.625,151 C10.425,151 10.825,150.8 10.725,150 C10.725,149.6 10.425,148.9 10.925,148.7 C11.725,148.5 12.625,148.6 13.425,148.7 C13.625,148.7 13.525,149.1 13.625,149.3 C13.625,150.5 13.625,151.7 13.625,152.9 C13.625,153.6 13.325,153.7 12.725,153.7 C10.925,153.8 8.925,153.8 7.025,153.8 Z" id="Path" fill="#045365"></path>
                <path d="M46.625,154.1 C44.225,154.1 42.325,153.6 40.925,152.2 C40.125,151.4 39.625,150.5 39.925,149.3 C40.225,148.3 41.025,147.7 42.025,147.9 C43.025,148.1 43.825,148.7 43.625,149.8 C43.425,150.9 44.025,151.1 44.825,151.3 C45.925,151.5 46.925,151.6 48.025,151.2 C49.725,150.5 49.925,148.6 48.425,147.5 C47.825,147 47.125,146.8 46.425,146.5 C45.425,146.1 44.425,145.7 43.425,145.3 C41.325,144.2 40.325,142.6 40.525,140.5 C40.725,138.4 42.125,136.7 44.425,136.2 C46.625,135.6 48.825,135.9 50.725,137.2 C51.725,137.9 52.325,138.7 52.225,140 C52.125,141.1 51.425,141.8 50.425,141.8 C49.325,141.8 48.425,141 48.625,139.9 C48.725,139.1 48.425,138.9 47.825,138.8 C46.925,138.6 46.025,138.5 45.125,138.9 C43.525,139.5 43.225,141.3 44.625,142.4 C45.325,142.9 46.125,143.2 46.825,143.5 C47.925,143.9 49.025,144.3 50.125,144.9 C51.825,145.9 52.625,147.3 52.525,149.3 C52.425,151.3 51.525,152.8 49.625,153.7 C48.525,153.9 47.325,154.1 46.625,154.1 Z" id="Path" fill="#055466"></path>
                <path d="M7.125,129.5 C5.025,129.5 3.325,129.1 1.925,127.9 C1.125,127.2 0.525,126.4 0.525,125.2 C0.625,123.9 1.425,123.2 2.625,123.3 C3.725,123.4 4.425,124.3 4.225,125.5 C4.125,126 4.125,126.2 4.625,126.4 C5.925,126.9 7.325,127 8.625,126.5 C10.325,125.8 10.525,123.8 9.025,122.8 C8.425,122.4 7.725,122.1 7.025,121.8 C6.125,121.4 5.125,121.1 4.225,120.7 C1.825,119.6 0.925,117.9 1.225,115.5 C1.425,113.5 3.125,111.8 5.425,111.3 C7.425,110.9 9.325,111.1 11.125,112.1 C12.225,112.7 13.025,113.6 13.025,115 C13.025,116.2 12.325,117 11.125,117 C9.925,117 9.125,116.3 9.125,115.1 C9.125,114.3 8.825,114.2 8.225,114 C7.325,113.8 6.525,113.8 5.625,114.1 C4.925,114.4 4.425,114.9 4.325,115.7 C4.225,116.5 4.525,117.1 5.125,117.6 C5.825,118.1 6.625,118.5 7.425,118.8 C8.225,119.1 9.025,119.4 9.725,119.7 C12.325,120.9 13.325,122.7 12.825,125.4 C12.425,127.5 10.525,129.2 8.125,129.5 C7.825,129.4 7.325,129.4 7.125,129.5 Z" id="Path" fill="#045365"></path>
                <path d="M65.025,111.4 C66.925,111.4 68.825,111.4 70.625,111.4 C71.425,111.4 71.625,111.6 71.625,112.4 C71.525,113.5 71.625,114.6 71.625,115.6 C71.625,116.3 71.525,116.7 70.725,116.6 C70.425,116.6 70.125,116.6 69.925,116.6 C68.925,116.8 68.425,116.4 68.625,115.3 C68.825,114.4 68.425,114.1 67.525,114.2 C66.525,114.3 65.525,114.2 64.525,114.2 C63.925,114.2 63.625,114.3 63.625,115 C63.725,116.1 63.625,117.2 63.625,118.4 C63.625,119.1 63.925,119.2 64.525,119.2 C65.725,119.2 66.825,119.2 68.025,119.2 C68.625,119.2 69.025,119.3 68.925,120.1 C68.925,120.4 68.925,120.7 68.925,121.1 C69.025,121.9 68.725,122.1 68.025,122 C66.825,121.9 65.725,122 64.525,122 C63.925,122 63.625,122.2 63.725,122.8 C63.725,123.7 63.825,124.6 63.725,125.6 C63.625,126.4 63.925,126.8 64.725,126.7 C65.125,126.7 65.825,126.4 66.025,126.9 C66.225,127.6 66.125,128.4 66.025,129.2 C66.025,129.5 65.625,129.4 65.425,129.4 C63.425,129.4 61.425,129.4 59.425,129.4 C58.825,129.4 58.625,129.2 58.725,128.7 C58.725,128.3 58.825,128 58.725,127.6 C58.625,126.8 58.925,126.6 59.625,126.7 C60.425,126.8 60.725,126.5 60.725,125.7 C60.625,122.3 60.625,118.9 60.625,115.5 C60.625,114.8 60.525,114.4 59.725,114.5 C58.825,114.7 58.425,114.3 58.625,113.4 C58.625,113.1 58.625,112.8 58.625,112.4 C58.525,111.8 58.825,111.6 59.425,111.6 C61.125,111.4 63.025,111.4 65.025,111.4 Z" id="Path" fill="#085668"></path>
                <path d="M79.725,129.2 C78.825,129.2 77.925,129.2 76.925,129.2 C76.325,129.2 76.025,129.1 76.125,128.4 C76.125,128.1 76.125,127.8 76.125,127.4 C76.025,126.6 76.325,126.3 77.125,126.4 C78.025,126.6 78.325,126.2 78.325,125.2 C78.225,121.9 78.225,118.5 78.225,115.2 C78.225,114.4 78.025,114.1 77.225,114.2 C75.625,114.5 76.125,113.3 76.025,112.5 C75.925,111.6 76.125,111.2 77.125,111.3 C78.925,111.4 80.725,111.4 82.525,111.3 C83.225,111.3 83.525,111.5 83.425,112.2 C83.425,112.5 83.425,112.8 83.425,113.2 C83.525,114 83.125,114.3 82.425,114.2 C81.525,114.1 81.225,114.4 81.325,115.3 C81.325,118.6 81.325,121.9 81.225,125.2 C81.225,126 81.325,126.5 82.325,126.4 C83.825,126.2 83.225,127.3 83.425,128 C83.625,128.9 83.225,129.2 82.325,129.1 C81.525,129.1 80.625,129.2 79.725,129.2 Z" id="Path" fill="#055466"></path>
                <path d="M6.325,162.1 C7.825,163.2 8.225,164 7.925,165.2 C7.625,166.3 6.525,167.1 4.925,167.2 C3.525,167.3 2.025,167.2 0.625,167.3 C0.125,167.3 -0.075,167.1 0.025,166.7 C0.125,166.3 -0.275,165.7 0.525,165.8 C1.025,165.8 1.225,165.6 1.225,165.1 C1.225,163.3 1.225,161.4 1.225,159.6 C1.225,159.2 1.325,158.8 0.725,158.9 C-0.075,159 0.125,158.4 0.025,158 C-0.075,157.3 0.425,157.4 0.925,157.4 C2.325,157.4 3.725,157.4 5.125,157.5 C6.525,157.6 7.425,158.4 7.725,159.5 C7.925,160.6 7.425,161.5 6.325,162.1 Z M2.925,164.3 C2.925,165.1 2.625,165.9 4.025,165.8 C5.525,165.7 6.225,165.3 6.225,164.4 C6.225,163.5 5.425,163 3.925,162.9 C2.525,162.8 2.925,163.7 2.925,164.3 Z M2.925,160.2 C3.025,160.7 2.425,161.6 3.825,161.5 C5.225,161.4 5.925,161 5.925,160.1 C5.925,159.2 5.225,158.9 3.925,158.7 C2.625,158.7 2.925,159.5 2.925,160.2 Z" id="Shape" fill="#055466"></path>
                <path d="M68.225,167.5 C65.925,167.5 64.125,166.3 63.425,164.3 C62.625,162.2 63.125,159.9 64.725,158.5 C66.325,157.1 68.925,156.7 70.725,157.7 C71.525,158.1 72.225,158.7 72.125,159.7 C72.125,160.3 71.725,160.8 71.125,160.8 C70.525,160.8 69.925,160.5 69.925,159.9 C69.925,159 69.425,158.9 68.825,158.9 C67.125,158.7 65.725,159.4 65.125,160.9 C64.425,162.4 64.925,164.3 66.125,165.3 C67.325,166.3 69.125,166.3 70.525,165.4 C70.925,165.1 71.125,164.6 71.825,165.2 C72.425,165.8 72.425,166.2 71.725,166.6 C70.625,167.2 69.525,167.5 68.225,167.5 Z" id="Path" fill="#085668"></path>
                <path d="M33.725,166.9 C31.225,167.9 29.525,167.3 28.825,165.4 C28.125,163.4 29.025,161.3 30.925,160.7 C31.525,160.5 32.225,160.5 32.825,160.7 C33.325,160.9 33.825,161.2 34.425,160.7 C34.925,160.3 35.425,160.7 35.425,161.5 C35.425,163.7 35.425,165.8 35.425,168 C35.425,168.4 35.225,169 36.025,169 C36.625,169 36.325,169.5 36.425,169.8 C36.525,170.2 36.325,170.4 35.925,170.4 C34.925,170.4 34.025,170.4 33.025,170.4 C32.625,170.4 32.525,170.2 32.525,169.9 C32.525,169.6 32.325,169.1 32.725,169.1 C34.525,168.9 33.425,167.7 33.725,166.9 Z M33.725,164 C33.725,162.4 33.425,162 32.125,162 C31.125,162 30.425,162.8 30.325,164 C30.325,165.2 31.025,166 32.025,166 C33.325,166 33.725,165.5 33.725,164 Z" id="Shape" fill="#085668"></path>
                <path d="M97.925,161.5 C98.325,161.3 98.625,161 99.025,160.8 C100.625,160.1 102.025,160.9 102.125,162.7 C102.125,163.4 102.125,164.1 102.125,164.9 C102.125,165.4 101.925,166 102.825,166.1 C103.325,166.1 103.125,166.7 103.125,167 C103.125,167.4 102.825,167.4 102.525,167.4 C101.725,167.4 100.925,167.4 100.125,167.4 C99.825,167.4 99.525,167.4 99.525,167 C99.525,166.7 99.325,166.1 99.825,166.1 C100.625,166 100.425,165.5 100.425,165.1 C100.425,164.6 100.425,164.1 100.425,163.5 C100.425,162.8 100.325,162.1 99.425,162.2 C98.625,162.3 97.825,162.4 97.725,163.5 C97.725,164.1 97.725,164.7 97.725,165.3 C97.725,165.7 97.725,166 98.225,166 C98.825,166.1 98.525,166.6 98.625,166.9 C98.625,167.4 98.225,167.3 97.925,167.3 C97.225,167.3 96.525,167.3 95.725,167.3 C95.425,167.3 94.925,167.4 95.025,166.8 C95.025,166.5 94.825,165.9 95.525,165.9 C96.025,165.9 96.025,165.5 96.025,165.2 C96.025,164.4 96.025,163.7 96.025,162.9 C96.025,162.5 96.125,162 95.425,162 C94.825,161.9 95.125,161.4 95.025,161 C95.025,160.6 95.325,160.5 95.625,160.6 C96.425,160.9 97.625,160 97.925,161.5 Z" id="Path" fill="#085668"></path>
                <path d="M89.925,166.5 C89.625,166.7 89.325,166.9 89.025,167.1 C87.325,168 85.825,167.2 85.725,165.3 C85.625,164.5 85.725,163.8 85.725,163 C85.725,162.5 85.825,162 85.125,162 C84.625,162 84.825,161.5 84.725,161.1 C84.725,160.7 84.925,160.6 85.325,160.6 C85.325,160.6 85.425,160.6 85.425,160.6 C87.425,160.5 87.425,160.5 87.425,162.4 C87.425,163.2 87.425,163.9 87.425,164.7 C87.425,165.3 87.625,165.9 88.325,165.9 C89.125,165.9 89.925,165.7 90.025,164.8 C90.125,164.1 90.025,163.4 90.025,162.7 C90.025,162.3 89.825,162.2 89.425,162.1 C88.825,162 89.025,161.6 88.925,161.2 C88.925,160.7 89.225,160.7 89.525,160.7 C89.625,160.7 89.725,160.7 89.725,160.7 C91.625,160.6 91.625,160.6 91.625,162.5 C91.625,163.3 91.625,164 91.625,164.8 C91.625,165.3 91.325,166 92.325,166.1 C92.825,166.2 92.725,167 92.425,167.3 C92.025,167.8 90.125,167.2 89.925,166.5 Z" id="Path" fill="#085668"></path>
                <path d="M43.425,163.6 C43.325,163 43.825,162.1 42.525,162 C42.225,162 42.425,161.4 42.425,161 C42.425,160.7 42.725,160.7 42.925,160.7 C42.925,160.7 43.025,160.7 43.025,160.7 C45.025,160.6 45.025,160.6 45.025,162.6 C45.025,163.4 45.025,164.2 45.025,165 C45.025,165.5 44.925,166 45.725,166.1 C46.325,166.2 46.025,166.9 45.925,167.3 C45.825,167.5 43.625,167.4 43.525,167.2 C43.325,166.2 42.925,166.9 42.625,167.1 C40.725,168.2 39.125,167.3 39.025,165.1 C39.025,164.4 39.025,163.7 39.025,163.1 C39.025,162.7 39.125,162.2 38.425,162.2 C37.825,162.2 38.125,161.6 38.025,161.3 C37.925,160.8 38.425,160.9 38.725,160.9 C40.725,160.7 40.725,160.7 40.725,162.8 C40.725,163.5 40.725,164.2 40.725,165 C40.725,165.7 40.925,166.3 41.725,166.2 C42.525,166.1 43.325,166 43.425,164.9 C43.425,164.3 43.425,163.9 43.425,163.6 Z" id="Path" fill="#055466"></path>
                <path d="M13.925,163.5 C14.125,163.3 14.925,164.1 15.025,163.2 C15.125,162.4 14.425,161.8 13.525,161.9 C13.125,161.9 12.925,162.1 12.825,162.5 C12.625,163.1 12.125,163.4 11.525,163 C10.925,162.6 10.925,162 11.325,161.5 C12.125,160.4 13.325,160.4 14.425,160.5 C15.525,160.6 16.325,161.1 16.525,162.3 C16.725,163.2 16.625,164.1 16.625,165 C16.625,165.4 16.625,165.8 17.225,165.8 C17.825,165.8 17.625,166.4 17.625,166.7 C17.625,167.2 17.225,167.2 16.925,167.1 C16.225,166.9 15.425,167.6 14.925,166.7 C14.825,166.5 14.525,166.8 14.325,166.9 C13.725,167.2 13.025,167.4 12.325,167.3 C11.425,167.1 10.625,166.7 10.625,165.6 C10.525,164.5 11.125,163.9 12.125,163.6 C12.725,163.6 13.225,163.6 13.925,163.5 Z M13.525,166.3 C14.125,166.1 15.025,166.2 15.125,165.3 C15.225,164.3 14.425,164.6 14.025,164.6 C13.325,164.5 12.625,164.6 12.525,165.5 C12.425,166 12.925,166.2 13.525,166.3 Z" id="Shape" fill="#085668"></path>
                <path d="M54.825,165.4 C55.125,166.7 54.425,167.1 53.425,167.3 C51.925,167.5 50.425,167.4 49.425,166.1 C48.525,165 48.425,163.8 48.925,162.5 C49.525,161 51.025,160.2 52.625,160.5 C54.225,160.7 55.125,161.8 55.325,163.4 C55.425,164.2 55.225,164.6 54.325,164.5 C53.325,164.4 52.325,164.5 51.325,164.5 C51.125,164.5 50.725,164.3 50.625,164.7 C50.525,165 50.825,165.2 51.025,165.4 C51.925,166.1 52.925,166 54.025,165.7 C54.225,165.7 54.525,165.6 54.825,165.4 Z M51.925,163.5 C52.425,163.1 53.325,164 53.425,163 C53.525,162.2 52.725,161.9 51.925,161.9 C51.125,161.9 50.425,162.3 50.525,163 C50.625,163.8 51.525,163.2 51.925,163.5 Z" id="Shape" fill="#085668"></path>
                <path d="M78.825,160.5 C80.825,160.5 82.325,162 82.325,163.9 C82.325,165.9 80.825,167.4 78.725,167.4 C76.625,167.4 75.225,165.9 75.225,163.8 C75.225,161.9 76.725,160.5 78.825,160.5 Z M80.525,163.9 C80.525,162.7 79.725,161.9 78.625,161.9 C77.625,161.9 76.925,162.8 76.925,163.9 C76.925,165.1 77.725,166 78.725,165.9 C79.825,166 80.525,165.2 80.525,163.9 Z" id="Shape" fill="#085668"></path>
                <path d="M23.225,167.5 C22.125,167.4 21.225,167.3 20.525,166.6 C20.225,166.3 20.025,165.9 20.225,165.4 C20.325,165.1 20.625,164.9 20.925,164.9 C21.425,164.9 21.725,165.1 21.925,165.6 C22.225,166.3 23.525,166.5 24.025,166 C24.525,165.6 24.225,165.2 23.725,165 C23.025,164.8 22.325,164.6 21.725,164.3 C21.025,164 20.325,163.6 20.425,162.7 C20.425,161.8 20.925,161.1 21.825,160.8 C22.925,160.4 23.925,160.5 24.925,161 C25.425,161.3 25.825,161.7 25.725,162.3 C25.725,162.7 25.425,163 25.025,163 C24.425,163.1 24.125,162.8 23.925,162.2 C23.725,161.6 23.125,161.8 22.725,161.8 C22.425,161.9 22.025,162 22.025,162.4 C22.025,162.9 22.425,163 22.825,163.1 C23.325,163.3 23.925,163.4 24.425,163.6 C25.225,163.9 25.925,164.4 25.825,165.4 C25.725,166.4 25.125,167 24.225,167.3 C23.925,167.4 23.525,167.4 23.225,167.5 Z" id="Path" fill="#085668"></path>
                <path d="M108.025,158.4 C108.025,158.9 108.025,159.2 108.025,159.4 C107.925,160.3 108.125,160.8 109.125,160.6 C109.625,160.5 110.025,160.5 110.025,161.3 C110.025,162 109.625,162.1 109.125,162 C108.225,161.9 107.825,162.2 107.925,163.2 C108.025,163.7 107.925,164.2 107.925,164.8 C107.925,165.7 108.325,166.1 109.225,165.9 C109.425,165.8 109.925,165.5 109.925,166.1 C110.025,166.5 110.025,167 109.525,167.3 C108.125,168.2 106.325,167.3 106.225,165.6 C106.225,164.9 106.225,164.2 106.225,163.5 C106.225,162.9 106.425,162.1 105.325,162.2 C104.825,162.2 105.025,161.7 105.025,161.5 C105.025,161.2 105.025,160.8 105.525,160.9 C106.125,161 106.325,160.7 106.325,160.1 C106.425,158.8 107.425,159 108.025,158.4 Z" id="Path" fill="#085668"></path>
                <path d="M115.525,161.7 C116.025,161.4 116.325,160.9 116.825,160.7 C117.425,160.5 118.025,160.5 118.425,161 C118.725,161.4 118.725,161.9 118.425,162.3 C118.025,162.8 117.525,162.7 116.925,162.4 C116.025,162 115.625,162.8 115.525,163.4 C115.325,164 115.525,164.7 115.425,165.4 C115.425,165.7 115.625,165.9 115.925,165.9 C116.625,165.8 116.525,166.3 116.525,166.8 C116.525,167.4 116.025,167.3 115.625,167.3 C114.825,167.3 114.125,167.3 113.325,167.3 C113.025,167.3 112.625,167.3 112.625,166.9 C112.625,166.6 112.425,166 113.025,166 C113.625,166 113.625,165.6 113.625,165.2 C113.625,164.4 113.625,163.7 113.625,162.9 C113.625,162.5 113.625,162.1 113.025,162.1 C112.325,162.1 112.625,161.5 112.625,161.2 C112.625,160.6 113.025,160.7 113.425,160.7 C115.225,160.6 115.225,160.6 115.525,161.7 Z" id="Path" fill="#085668"></path>
                <path d="M74.625,58 C74.125,58 73.825,58 73.625,57.9 C72.125,56.9 70.825,57.6 69.425,58.2 C68.725,58.5 68.225,58.3 68.025,57.6 C67.925,57.4 67.825,57.2 67.625,57 C67.225,56.5 66.625,56.3 66.025,56.6 C65.425,56.9 65.325,57.5 65.525,58.1 C65.625,58.4 65.825,58.8 66.025,59 C66.425,59.6 65.925,59.8 65.625,60 C65.125,60.4 65.025,59.9 64.825,59.6 C63.325,57 61.725,54.3 60.225,51.7 C60.025,51.4 59.825,51 59.525,50.8 C59.025,50.5 58.525,50.6 58.125,50.9 C57.625,51.3 57.625,51.9 57.925,52.4 C58.525,53.4 59.025,54.4 59.625,55.4 C60.625,57.1 61.625,58.8 62.725,60.7 C60.425,60.7 58.525,61.2 56.525,59.7 C52.925,57.1 48.125,57 44.625,60.1 C43.825,60.8 42.925,61.2 41.825,61.1 C41.425,61.1 41.125,61.1 40.725,61.1 C38.525,61.3 36.725,60.7 34.825,59.4 C31.425,57.1 27.825,57.5 24.325,59.4 C22.425,60.5 20.425,60.2 18.425,60.4 C17.225,60.5 16.625,59.1 17.225,58.1 C19.925,53.6 22.625,49.2 25.225,44.7 C25.625,44 26.025,43.8 26.825,43.8 C29.725,43.8 32.625,43.8 35.525,43.8 C38.725,43.8 41.025,41.6 41.025,38.5 C41.025,35.4 38.825,33.1 35.625,33 C35.125,33 34.725,33 34.625,32.3 C34.625,32 34.425,31.6 34.225,31.3 C33.625,30.5 33.825,29.8 34.525,29.1 C35.625,30.1 36.725,31.1 37.925,32 C38.925,32.9 39.525,32.8 40.425,31.7 C41.225,30.6 41.925,29.6 42.725,28.5 C43.025,28 43.225,27.9 43.825,28.3 C46.125,30.1 46.225,30.1 47.725,27.6 C48.925,25.6 50.125,23.6 51.425,21.5 C52.425,23.1 53.325,24.6 54.225,26.1 C54.825,27 55.325,28 55.925,28.9 C56.525,29.9 57.325,29.9 58.125,29.1 C58.225,29 58.325,28.5 58.525,28.8 C59.625,30.3 60.525,29.4 61.325,28.4 C68.025,39.2 74.625,49.9 81.325,60.7 C80.525,60.7 79.925,60.8 79.425,60.7 C78.725,60.6 77.825,60.4 77.925,59.3 C77.925,59 77.625,58.6 77.425,58.2 C74.825,53.8 72.325,49.4 69.725,45 C69.625,44.8 69.525,44.6 69.325,44.4 C68.925,43.8 68.325,43.6 67.625,44 C67.025,44.4 66.925,45 67.225,45.6 C67.625,46.4 68.025,47.1 68.425,47.8 C70.525,51 72.525,54.4 74.625,58 Z M56.225,42 C56.125,42.3 56.325,42.6 56.525,42.9 C58.025,45.5 59.525,48.1 61.025,50.7 C61.425,51.5 62.025,52 62.925,51.5 C63.825,51 63.625,50.2 63.125,49.4 C62.125,47.7 61.125,45.9 60.025,44.2 C59.425,43.2 58.925,42.3 58.325,41.3 C58.025,40.8 57.525,40.5 56.925,40.7 C56.525,40.9 56.225,41.3 56.225,42 Z M55.825,48 C56.925,48 57.425,47.1 56.825,46 C55.225,43.2 53.625,40.5 52.025,37.7 C51.625,37 51.025,36.6 50.225,37.1 C49.425,37.5 49.525,38.3 49.925,39 C51.525,41.8 53.125,44.5 54.725,47.3 C54.925,47.7 55.325,48 55.825,48 Z M61.725,32.1 C60.625,32.1 60.125,33.1 60.725,34.1 C62.225,36.8 63.825,39.4 65.325,42 C65.725,42.7 66.325,43 67.125,42.6 C67.925,42.2 67.825,41.5 67.425,40.7 C65.925,38.1 64.325,35.4 62.825,32.8 C62.625,32.4 62.225,32.2 61.725,32.1 Z M65.725,46.9 C64.625,46.9 64.125,47.8 64.725,48.9 C65.925,51 67.225,53.2 68.425,55.3 C68.825,56.1 69.525,56.5 70.325,56 C71.125,55.6 71.025,54.8 70.625,54.1 C69.325,51.9 68.125,49.8 66.825,47.6 C66.525,47.2 66.225,46.9 65.725,46.9 Z M60.725,37.5 C60.725,37.4 60.725,37.3 60.625,37.2 C59.525,35 58.225,32.9 56.925,30.8 C56.625,30.3 55.925,30.3 55.425,30.6 C54.925,31 54.625,31.5 55.025,32.1 C56.225,34.2 57.425,36.3 58.625,38.3 C58.925,38.8 59.425,38.9 60.025,38.7 C60.525,38.5 60.725,38.1 60.725,37.5 Z M61.725,40 C60.725,40 60.125,40.9 60.625,41.8 C61.125,42.8 61.725,43.8 62.325,44.8 C62.725,45.4 63.325,45.6 63.925,45.3 C64.625,44.9 64.725,44.2 64.425,43.6 C63.925,42.6 63.325,41.7 62.725,40.7 C62.525,40.3 62.225,40 61.725,40 Z M53.225,32.4 C52.725,31.3 52.125,29.9 51.025,28.9 C50.625,28.5 50.125,28.7 49.725,29 C49.225,29.4 49.125,29.9 49.425,30.4 C49.925,31.4 50.525,32.3 51.125,33.3 C51.425,33.8 51.925,33.9 52.525,33.7 C52.925,33.6 53.225,33.2 53.225,32.4 Z M55.225,39.3 C56.225,39.3 56.825,38.5 56.425,37.6 C56.025,36.8 55.525,36 55.025,35.2 C54.625,34.6 54.125,34.5 53.425,34.8 C52.825,35.1 52.625,35.7 52.925,36.3 C53.325,37.1 53.825,38 54.325,38.8 C54.525,39.2 54.825,39.4 55.225,39.3 Z" id="Shape" fill="#F9FAFB"></path>
                <path d="M82.925,44.5 C82.925,44.5 83.025,44.5 83.025,44.5 C84.225,44.8 85.225,44.9 85.925,46.4 C87.225,49.1 89.325,51.5 91.025,54 C91.525,54.7 92.025,55.1 92.825,54.5 C93.625,54 93.425,53.3 92.925,52.6 C91.125,50.1 89.325,47.5 87.525,44.8 C88.725,44.6 89.725,44.5 90.225,45.8 C90.525,46.4 91.025,46.9 91.325,47.5 C91.825,48.2 92.425,48.6 93.225,48.1 C93.925,47.6 93.725,46.9 93.325,46.2 C93.025,45.8 92.625,45.4 92.525,44.8 C93.325,44.7 94.125,44.6 94.825,45.2 C95.225,45.5 95.725,45.4 96.125,45.1 C97.325,44.3 98.125,44.5 98.925,45.6 C102.125,50 105.325,54.4 108.425,58.8 C108.625,59.1 109.225,59.4 108.525,59.9 C107.825,60.4 107.725,59.8 107.525,59.5 C104.725,55.5 101.925,51.5 99.125,47.4 C99.025,47.2 98.825,47 98.725,46.8 C98.225,46.1 97.625,45.8 96.925,46.3 C96.225,46.8 96.325,47.5 96.825,48.1 C97.425,49 98.025,49.9 98.625,50.8 C100.825,53.9 102.925,57 105.125,60.1 C105.325,60.4 105.725,60.7 105.725,61.2 C104.625,61.2 103.725,61.2 103.025,60.1 C102.525,59.1 101.725,59 101.025,59.8 C100.625,60.3 100.425,60 100.125,59.8 C97.725,58.1 95.125,57.3 92.225,57.5 C91.725,57.5 91.525,57.4 91.225,57 C90.725,56.2 90.125,55.4 89.625,54.6 C89.225,54 88.625,53.7 87.925,54.1 C87.225,54.6 87.325,55.2 87.725,55.9 C87.725,56 87.825,56 87.825,56.1 C88.225,56.8 89.125,57.4 89.025,58.1 C88.925,58.6 87.725,58.8 87.225,59.3 C86.425,59.9 86.125,59.6 85.725,58.9 C80.225,50 74.825,41.2 69.325,32.4 C69.225,32.2 69.025,31.9 68.925,31.7 C68.825,31.4 69.025,31.1 69.225,31 C69.525,30.8 69.625,31.2 69.725,31.4 C70.025,31.8 70.325,32.3 70.625,32.7 C71.425,33.7 72.225,33.7 72.925,32.6 C73.625,31.6 74.225,30.5 74.925,29.4 C75.125,29.7 75.325,29.9 75.425,30.1 C76.225,31.1 77.025,31.1 77.725,30 C78.825,28.3 79.925,26.6 81.025,24.7 C82.025,25.8 82.925,26.8 83.825,27.9 C84.425,28.7 85.125,29.1 86.025,28.3 C86.125,28.2 86.225,28.1 86.325,28.1 C86.825,28.1 87.925,30.3 87.725,30.7 C87.725,30.8 87.625,30.8 87.625,30.9 C86.425,32.8 85.225,33.4 83.325,34.4 C81.625,35.4 80.625,35.4 79.825,33.6 C79.525,33 78.825,33 78.225,33.4 C77.625,33.8 77.625,34.4 77.925,35 C78.025,35.2 78.225,35.5 78.425,35.7 C80.125,37.1 79.825,39.1 80.025,40.9 C80.125,41.3 79.825,41.3 79.525,41.4 C78.525,41.8 78.425,42.5 79.025,43.3 C80.825,45.9 82.625,48.5 84.425,51.1 C84.925,51.7 85.525,52 86.125,51.5 C86.825,51 86.725,50.4 86.325,49.7 C85.125,48 84.025,46.3 82.825,44.6 C82.825,44.6 82.925,44.6 82.925,44.5 Z M95.325,49.8 C94.925,49.8 94.525,50 94.325,50.3 C94.025,50.8 94.125,51.3 94.425,51.7 C95.825,53.7 97.225,55.7 98.625,57.8 C99.125,58.5 99.725,58.8 100.425,58.2 C101.125,57.7 100.925,57 100.525,56.4 C99.125,54.4 97.725,52.4 96.325,50.3 C96.125,50.1 95.825,49.8 95.325,49.8 Z" id="Shape" fill="#F9FAFB"></path>
                <path d="M48.025,6.7 C51.825,12.8 55.425,18.7 59.225,24.8 C58.125,24.4 57.325,24.7 56.925,25.8 C55.525,23.5 54.225,21.3 52.825,19 C51.825,17.4 50.925,17.4 50.025,19 C48.725,21.2 47.325,23.4 46.025,25.6 C45.625,26.3 45.325,26.5 44.725,25.8 C44.525,25.6 44.325,25.4 44.125,25.2 C43.225,24.4 42.525,24.5 41.825,25.4 C41.025,26.5 40.225,27.7 39.425,28.8 C39.125,29.3 38.825,29.3 38.425,28.9 C35.825,26.8 35.825,26.8 37.525,24 C40.825,18.5 44.025,13.1 47.325,7.6 C47.525,7.5 47.725,7.1 48.025,6.7 Z" id="Path" fill="#F9FAFB"></path>
                <path d="M27.325,41.4 C24.725,41.4 22.025,41.4 19.425,41.4 C17.325,41.4 16.025,40.2 16.125,38.4 C16.125,36.6 17.425,35.5 19.525,35.5 C20.425,35.5 21.425,35.8 22.125,35.4 C22.825,35 22.425,33.9 22.625,33.1 C23.325,30.6 25.525,29.1 28.125,29.3 C30.525,29.5 32.525,31.6 32.625,34.2 C32.625,35.3 33.025,35.6 34.025,35.5 C34.525,35.4 35.125,35.5 35.725,35.5 C37.525,35.5 38.725,36.7 38.725,38.4 C38.725,40.1 37.525,41.4 35.725,41.4 C32.825,41.4 30.025,41.4 27.325,41.4 Z" id="Path" fill="#F9FAFB"></path>
                <path d="M93.525,42.4 C90.825,42.4 88.125,42.4 85.425,42.4 C83.525,42.4 82.325,41.2 82.225,39.6 C82.225,37.9 83.525,36.7 85.425,36.6 C86.325,36.6 87.325,36.8 88.125,36.5 C89.125,36.1 88.425,34.9 88.725,34.1 C89.425,31.7 91.725,30.1 94.125,30.4 C96.625,30.7 98.525,32.6 98.625,35.2 C98.625,36.4 99.025,36.9 100.225,36.7 C100.725,36.6 101.225,36.7 101.825,36.7 C103.625,36.8 104.925,37.9 104.825,39.7 C104.825,41.4 103.625,42.5 101.825,42.5 C99.025,42.5 96.325,42.4 93.525,42.4 Z" id="Path" fill="#FCFDFD"></path>
                <path d="M81.325,21.7 C80.525,21.6 80.125,22 79.725,22.6 C78.725,24.2 77.725,25.8 76.625,27.5 C76.425,27.2 76.325,27 76.125,26.9 C75.325,25.9 74.525,25.9 73.825,27 C73.125,28 72.525,29.1 71.825,30.1 C70.725,29.3 70.725,28.5 71.425,27.4 C73.425,24.1 75.325,20.8 77.325,17.4 C77.525,17.1 77.725,16.8 77.925,16.4 C79.125,18.2 80.325,19.8 81.425,21.5 C81.425,21.6 81.425,21.6 81.325,21.7 Z" id="Path" fill="#F9FAFB"></path>
                <path d="M81.525,21.5 C81.625,21.5 81.725,21.6 81.625,21.7 C81.625,21.7 81.425,21.7 81.325,21.7 C81.425,21.6 81.425,21.6 81.525,21.5 Z" id="Path" fill="#F9FAFB"></path>
                <path d="M82.825,44.6 C82.825,44.5 82.725,44.4 82.725,44.4 C82.825,44.3 82.925,44.4 82.925,44.5 C82.925,44.6 82.825,44.6 82.825,44.6 Z" id="Path" fill="#F9FAFB"></path>
                <path d="M4.025,72.7 C5.725,72.5 7.125,73.1 8.425,73.8 C12.125,75.5 15.225,78 18.225,80.7 C23.525,85.4 28.225,90.6 32.025,96.7 C32.325,97.1 32.925,97.8 32.525,98.2 C32.025,98.6 31.625,97.8 31.225,97.4 C22.225,89.3 13.225,81.2 4.225,73.1 C4.125,72.9 4.125,72.8 4.025,72.7 Z" id="Path" fill="#F3F7F7"></path>
                <path d="M2.225,74.2 C4.225,76 6.025,77.6 7.925,79.3 C13.125,84 18.325,88.7 23.525,93.4 C23.725,93.6 24.225,93.8 24.125,94.2 C23.825,94.8 23.525,95.4 23.125,96 C23.125,96 22.825,95.9 22.625,95.8 C15.625,91.1 9.125,85.8 4.125,78.8 C2.925,77.1 2.525,75.9 2.225,74.2 Z" id="Path" fill="#F3F7F7"></path>
                <path d="M25.225,98.4 C25.225,98 25.125,97.6 25.225,97.2 C25.325,96.9 25.225,96.3 25.725,96.3 C26.025,96.3 26.325,96.7 26.525,96.9 C26.925,97.4 26.325,97.5 26.125,97.7 C25.925,97.9 25.525,98.1 25.225,98.4 Z" id="Path" fill="#F3F7F7"></path>
                <path d="M28.025,98.9 C29.425,97.7 29.525,99.2 30.225,99.6 C29.325,99.8 28.825,99.1 28.025,98.9 Z" id="Path" fill="#F3F7F7"></path>
                <path d="M90.825,98.7 C90.625,98 91.125,97.5 91.425,97 C95.025,91 99.625,85.9 104.725,81.2 C107.525,78.6 110.525,76.2 113.925,74.3 C116.325,72.9 117.925,72.5 119.825,72.6 C117.925,74.4 116.025,76 114.225,77.7 C106.825,84.4 99.425,91 92.125,97.7 C91.625,98.1 91.225,98.4 90.825,98.7 L90.825,98.7 Z" id="Path" fill="#F3F7F7"></path>
                <path d="M100.625,96.1 C100.525,96 100.525,96 100.525,96 C99.625,94 99.625,94 101.225,92.6 C107.825,86.6 114.425,80.7 121.025,74.7 C121.125,74.6 121.225,74.6 121.425,74.4 C121.425,75.5 121.025,76.3 120.625,77.1 C119.125,80 117.025,82.3 114.825,84.6 C110.825,88.7 106.425,92.3 101.625,95.5 C101.225,95.7 100.925,95.9 100.625,96.1 Z" id="Path" fill="#F3F7F7"></path>
                <path d="M98.525,98.5 C96.925,97 96.925,97 98.125,96.1 C98.625,96.8 98.425,97.5 98.525,98.5 Z" id="Path" fill="#F3F7F7"></path>
                <path d="M95.725,98.9 C94.825,99.2 94.125,99.5 93.425,99.8 C93.425,99.7 93.325,99.6 93.325,99.5 C94.125,99.5 94.225,97.7 95.725,98.9 Z" id="Path" fill="#F3F7F7"></path>
                <path d="M90.825,98.7 C90.825,98.7 90.725,98.8 90.725,98.8 C90.725,98.8 90.725,98.7 90.725,98.7 C90.725,98.7 90.725,98.7 90.825,98.7 C90.825,98.7 90.825,98.7 90.825,98.7 Z" id="Path" fill="#F3F7F7"></path>
                <path d="M56.225,42 C56.225,41.3 56.525,40.9 57.025,40.8 C57.625,40.6 58.125,40.9 58.425,41.4 C59.025,42.3 59.525,43.3 60.125,44.3 C61.125,46 62.125,47.8 63.225,49.5 C63.625,50.2 63.925,51 63.025,51.6 C62.125,52.1 61.525,51.6 61.125,50.8 C59.625,48.2 58.125,45.6 56.625,43 C56.425,42.6 56.225,42.3 56.225,42 Z" id="Path" fill="#055466"></path>
                <path d="M55.825,48 C55.325,48 55.025,47.7 54.725,47.3 C53.125,44.5 51.525,41.8 49.925,39 C49.525,38.3 49.525,37.6 50.225,37.1 C51.025,36.7 51.625,37 52.025,37.7 C53.625,40.4 55.225,43.2 56.825,46 C57.425,47.1 56.925,48 55.825,48 Z" id="Path" fill="#055466"></path>
                <path d="M61.725,32.1 C62.225,32.1 62.525,32.4 62.825,32.8 C64.325,35.4 65.925,38.1 67.425,40.7 C67.825,41.4 67.825,42.1 67.125,42.6 C66.325,43 65.725,42.7 65.325,42 C63.825,39.4 62.225,36.7 60.725,34.1 C60.125,33.1 60.725,32.1 61.725,32.1 Z" id="Path" fill="#085668"></path>
                <path d="M65.725,46.9 C66.325,46.9 66.625,47.2 66.825,47.6 C68.125,49.8 69.325,51.9 70.625,54.1 C71.025,54.8 71.025,55.5 70.325,56 C69.525,56.5 68.925,56.1 68.425,55.3 C67.225,53.2 65.925,51 64.725,48.9 C64.125,47.9 64.625,46.9 65.725,46.9 Z" id="Path" fill="#085668"></path>
                <path d="M60.725,37.5 C60.725,38 60.525,38.4 60.025,38.6 C59.425,38.8 58.925,38.7 58.625,38.2 C57.425,36.2 56.225,34.1 55.025,32 C54.725,31.4 54.925,30.9 55.425,30.5 C55.925,30.1 56.625,30.2 56.925,30.7 C58.325,32.8 59.525,34.9 60.625,37.1 C60.725,37.3 60.725,37.4 60.725,37.5 Z" id="Path" fill="#085668"></path>
                <path d="M61.725,40 C62.225,40 62.525,40.3 62.825,40.7 C63.425,41.6 63.925,42.6 64.525,43.6 C64.925,44.3 64.825,45 64.025,45.3 C63.425,45.6 62.725,45.5 62.425,44.8 C61.825,43.8 61.225,42.8 60.725,41.8 C60.125,40.9 60.725,39.9 61.725,40 Z" id="Path" fill="#085668"></path>
                <path d="M53.225,32.4 C53.225,33.2 52.925,33.6 52.425,33.7 C51.925,33.9 51.325,33.8 51.025,33.3 C50.425,32.4 49.825,31.4 49.325,30.4 C49.125,29.9 49.125,29.4 49.625,29 C50.025,28.7 50.525,28.5 50.925,28.9 C52.125,29.9 52.725,31.3 53.225,32.4 Z" id="Path" fill="#085668"></path>
                <path d="M55.225,39.3 C54.825,39.3 54.525,39.2 54.325,38.8 C53.825,38 53.325,37.2 52.925,36.3 C52.625,35.7 52.825,35.1 53.425,34.8 C54.025,34.4 54.625,34.6 55.025,35.2 C55.525,36 56.025,36.7 56.425,37.6 C56.725,38.5 56.125,39.4 55.225,39.3 Z" id="Path" fill="#085668"></path>
                <path d="M95.325,49.8 C95.825,49.8 96.125,50 96.425,50.4 C97.825,52.4 99.225,54.4 100.625,56.5 C101.025,57.1 101.225,57.8 100.525,58.3 C99.825,58.8 99.225,58.6 98.725,57.9 C97.325,55.9 95.925,53.8 94.525,51.8 C94.225,51.3 94.025,50.9 94.425,50.4 C94.525,50 94.825,49.8 95.325,49.8 Z" id="Path" fill="#085668"></path>
            </g>
        </g>
    </g>
</svg>